<svg xmlns="http://www.w3.org/2000/svg" width="512" height="512" viewBox="15 0 57 57" version="1.0">
<path fill="#060" d="M.109 28.812V.104H86.63l-.067 28.642-.068 28.64-43.193.067L.11 57.52z"/>
<path fill="#fff" d="M34.548 38.426a8.599 8.599 0 0 0 17.199 0 8.551 8.551 0 0 0-.832-3.68c-.014 3.28-2.837 8.102-7.765 8.102-4.927 0-7.757-4.738-7.77-8.102a8.553 8.553 0 0 0-.832 3.68z"/>
<path fill="#fff" d="M55.192 11.549a8.599 8.599 0 0 1 0 17.199 8.552 8.552 0 0 1-3.68-.832c3.278-.014 8.101-2.837 8.101-7.765 0-4.927-4.738-7.757-8.102-7.77a8.553 8.553 0 0 1 3.68-.832z"/>
<path fill="#fff" d="M31.22 11.605a8.599 8.599 0 0 0 0 17.199 8.551 8.551 0 0 0 3.68-.833c-3.279-.013-8.101-2.836-8.101-7.764 0-4.927 4.738-7.758 8.102-7.77a8.553 8.553 0 0 0-3.68-.832z"/>
</svg>
