<?xml version="1.0" standalone="no"?>
<!DOCTYPE svg PUBLIC "-//W3C//DTD SVG 20010904//EN"
 "http://www.w3.org/TR/2001/REC-SVG-20010904/DTD/svg10.dtd">
<svg version="1.0" xmlns="http://www.w3.org/2000/svg"
 width="512.000000pt" height="512.000000pt" viewBox="0 0 512.000000 512.000000"
 preserveAspectRatio="xMidYMid meet">
<metadata>
Created by potrace 1.15, written by Peter Selinger 2001-2017
</metadata>
<g transform="translate(0.000000,512.000000) scale(0.100000,-0.100000)"
fill="#000000" stroke="none">
<path d="M2087 4566 c-94 -34 -165 -107 -192 -199 -19 -63 -19 -117 -1 -187 8
-30 12 -58 10 -61 -2 -4 -28 -13 -56 -19 -29 -7 -105 -31 -168 -53 -531 -185
-847 -507 -979 -998 -30 -113 -60 -332 -68 -495 l-6 -144 431 0 c238 0 432 -3
432 -6 0 -3 -7 -13 -16 -21 -29 -29 -464 -614 -464 -624 0 -5 122 -9 313 -8
l312 0 65 85 c36 47 71 93 78 102 29 39 246 319 268 347 47 60 181 235 279
364 55 73 128 169 163 214 l63 82 -499 3 -500 2 -6 31 c-9 48 -7 552 3 567 4
8 19 12 32 10 l24 -3 3 -272 2 -273 235 0 235 0 2 473 3 472 100 5 c82 5 109
11 150 32 112 59 168 153 168 283 0 67 -4 89 -26 131 -33 64 -113 137 -174
158 -56 19 -164 20 -216 2z"/>
<path d="M2831 4569 c-79 -24 -157 -95 -192 -174 -30 -67 -30 -180 -1 -245 30
-66 87 -127 146 -158 42 -21 69 -27 151 -32 l100 -5 3 -472 2 -473 235 0 235
0 0 270 0 270 26 6 c14 4 30 2 35 -3 5 -5 8 -129 7 -304 l-3 -294 -501 -5
-502 -5 137 -181 c75 -99 154 -203 176 -232 22 -28 94 -121 160 -207 66 -86
157 -204 203 -263 45 -59 89 -116 97 -127 9 -11 45 -57 81 -102 l65 -83 309 0
c189 0 310 4 310 9 0 12 -446 611 -466 627 -8 6 -11 14 -7 17 3 4 198 7 431 7
l425 0 -6 153 c-24 606 -225 1013 -636 1288 -137 92 -410 209 -579 249 -28 6
-54 15 -57 19 -2 4 2 29 10 56 45 147 -16 299 -146 370 -45 24 -68 29 -134 32
-44 1 -95 -2 -114 -8z"/>
<path d="M2283 3181 c-37 -23 -47 -50 -39 -96 7 -35 50 -75 81 -75 25 0 73 28
85 49 21 40 12 87 -21 115 -36 31 -63 33 -106 7z"/>
<path d="M2525 3191 c-41 -17 -58 -48 -52 -93 16 -117 161 -114 174 3 5 42 3
48 -27 72 -32 27 -59 32 -95 18z"/>
<path d="M2748 3184 c-68 -36 -63 -126 9 -163 35 -18 59 -13 92 18 44 41 44
98 0 135 -34 29 -61 32 -101 10z"/>
<path d="M835 1503 c-42 -5 -115 -33 -144 -55 -96 -74 -105 -212 -19 -297 42
-42 135 -81 195 -81 39 0 160 37 169 52 3 5 -4 20 -15 32 -22 23 -22 23 -59 5
-69 -36 -145 -21 -177 34 -26 44 -26 150 0 194 33 56 88 68 173 36 39 -15 44
-15 62 2 11 10 20 21 20 25 0 12 -92 47 -135 52 -22 2 -53 2 -70 1z"/>
<path d="M1283 1499 c-87 -16 -165 -75 -183 -140 -35 -121 18 -224 139 -268
73 -27 119 -27 192 0 112 41 176 146 149 243 -32 117 -164 191 -297 165z m107
-67 c33 -34 45 -93 37 -183 -17 -188 -186 -159 -187 32 0 82 9 116 40 149 36
39 72 39 110 2z"/>
<path d="M1680 1290 l0 -200 138 0 139 0 11 25 c7 14 12 28 12 30 0 3 -36 5
-80 5 l-80 0 0 170 0 170 -70 0 -70 0 0 -200z"/>
<path d="M2060 1345 c0 -106 4 -153 14 -173 74 -142 340 -134 395 11 6 16 11
91 11 168 l0 139 -70 0 -70 0 0 -150 c0 -137 -2 -152 -20 -170 -24 -24 -67
-26 -98 -4 -21 15 -22 21 -22 170 l0 154 -70 0 -70 0 0 -145z"/>
<path d="M2620 1290 l0 -200 40 0 40 0 0 126 c0 88 3 123 11 118 6 -3 36 -59
67 -123 l57 -116 49 0 50 0 38 90 c21 50 44 102 49 118 21 52 29 26 29 -93 l0
-120 70 0 70 0 0 200 0 200 -81 0 -80 0 -15 -37 c-8 -21 -21 -51 -29 -68 -7
-16 -23 -54 -35 -82 -12 -29 -26 -53 -29 -53 -4 0 -33 54 -65 120 l-57 120
-90 0 -89 0 0 -200z"/>
<path d="M3320 1290 l0 -200 154 0 c85 0 167 5 183 11 50 19 73 48 73 94 0 46
-23 75 -75 95 -22 9 -26 14 -15 19 60 25 87 76 65 128 -18 42 -70 53 -244 53
l-141 0 0 -200z m237 129 c18 -16 16 -69 -4 -91 -10 -11 -30 -18 -55 -18 l-38
0 0 59 c0 38 5 61 13 65 17 7 67 -2 84 -15z m12 -187 c23 -56 -15 -100 -80
-90 -22 3 -24 9 -27 61 l-3 57 49 0 c45 0 51 -3 61 -28z"/>
<path d="M3830 1290 l0 -200 70 0 70 0 0 200 0 200 -70 0 -70 0 0 -200z"/>
<path d="M4216 1482 c-3 -5 -21 -46 -40 -93 -19 -46 -54 -132 -79 -191 l-45
-108 47 0 c45 0 48 2 60 35 l12 35 85 0 85 0 15 -35 14 -35 75 0 c41 0 75 1
75 3 0 6 -41 118 -93 252 l-55 140 -75 3 c-41 2 -78 -1 -81 -6z m72 -164 c31
-88 31 -88 -32 -88 l-54 0 10 38 c15 53 39 112 47 112 3 0 16 -28 29 -62z"/>
<path d="M1450 991 c-43 -14 -104 -48 -122 -68 -25 -27 -58 -104 -58 -135 0
-35 32 -107 63 -139 47 -49 113 -73 202 -73 64 0 89 5 126 23 l47 23 4 92 c3
50 3 94 1 99 -2 4 -44 7 -94 7 l-89 0 0 -29 c0 -24 5 -30 30 -34 29 -6 30 -8
30 -67 l0 -60 -46 0 c-38 0 -51 5 -74 30 -57 61 -53 212 7 260 35 27 104 27
150 -1 l35 -22 25 26 26 25 -44 23 c-47 24 -172 36 -219 20z"/>
<path d="M3560 991 c-46 -11 -89 -41 -105 -71 -17 -34 -20 -83 -5 -110 13 -25
85 -66 130 -75 19 -4 41 -11 50 -15 8 -4 28 -13 43 -19 33 -13 44 -36 26 -57
-21 -26 -126 -15 -176 18 -35 23 -40 24 -61 10 -31 -20 -28 -37 13 -61 54 -32
149 -46 223 -33 74 13 116 42 137 94 32 80 -22 136 -176 182 -88 26 -111 45
-88 72 18 22 117 18 161 -6 36 -19 37 -19 60 0 l23 20 -25 19 c-45 35 -156 51
-230 32z"/>
<path d="M1931 968 c-5 -13 -25 -61 -45 -108 -57 -132 -104 -243 -110 -263 -5
-16 0 -18 41 -15 43 3 47 5 58 38 l12 35 85 3 85 3 18 -41 18 -40 74 0 c40 0
73 2 73 4 0 7 -59 167 -74 201 -7 17 -28 69 -46 118 l-34 87 -73 0 c-67 0 -74
-2 -82 -22z m57 -110 c5 -7 15 -33 22 -58 6 -25 13 -53 16 -62 5 -16 -2 -18
-50 -18 -62 0 -69 10 -42 62 8 15 17 40 21 57 7 33 16 38 33 19z"/>
<path d="M2320 785 l0 -205 40 0 40 0 0 126 c0 96 3 125 13 122 12 -4 51 -76
102 -190 26 -58 26 -58 70 -58 44 0 45 1 68 53 13 28 34 79 47 112 49 122 60
115 60 -40 l0 -125 70 0 70 0 0 205 0 205 -82 0 -83 0 -24 -58 c-13 -31 -35
-81 -48 -110 -12 -29 -23 -57 -23 -63 0 -33 -32 11 -83 114 l-58 117 -89 0
-90 0 0 -205z"/>
<path d="M3030 785 l0 -205 153 0 154 0 11 25 c7 14 12 30 12 35 0 6 -41 10
-94 10 l-93 0 -7 38 c-10 64 -14 62 84 62 l90 0 0 35 0 35 -84 0 -84 0 -7 40
c-4 21 -4 44 0 50 3 5 43 10 91 10 46 0 84 4 84 10 0 5 -5 21 -12 35 l-11 25
-144 0 -143 0 0 -205z"/>
</g>
</svg>
