<svg xmlns="http://www.w3.org/2000/svg" width="600" height="600"><path d="M 0,-250 H 600" fill="none" stroke="#c00" stroke-width="72" transform="translate(0,550)"/><path transform="translate(0,550) matrix(12,0,0,12,0,-550)" fill="#c00" d="M0 18L5 25 0 32z"/><path transform="translate(0,550) matrix(0,12,-12,0,600,-550)" fill="#c00" d="M0 32L0 18 5 25z"/><g><path d="M 0,25 H 50" fill="none" stroke="#c00" stroke-width="6" transform="matrix(0,-12,-12,0,600,600)"/><path fill="#c00" d="M0 32L0 18 5 25z" transform="matrix(0,-12,-12,0,600,600)"/><path transform="matrix(0,-12,-12,0,600,600) rotate(90,25,25)" fill="#c00" d="M5 25L0 32 0 18z"/></g></svg>