<svg width="248.87" height="215.85" viewBox="0 0 65.847 57.11" xmlns="http://www.w3.org/2000/svg"><g fill="#000" opacity="0.3"><path d="M28.02.53C12.797.82.534 13.264.534 28.553c0 15.47 12.56 28.029 28.03 28.029a27.924 27.924 0 0018.801-7.251 23.821 23.821 0 01-11.906 3.166c-13.21 0-23.928-10.718-23.928-23.928S22.25 4.64 35.46 4.64a23.82 23.82 0 0111.99 3.217A27.922 27.922 0 0028.563.53c-.181 0-.365-.003-.546 0z"/><path d="M65.32 28.57L41.2 36.408l14.906-20.516v25.36L41.201 20.733z"/></g></svg>
