<svg xmlns="http://www.w3.org/2000/svg" width="250" height="250"><g stroke-width="1.5"><path d="M129.6 227.4S116 222 102 224.2c-9.7 1.6-17 10.6-26.6 12.4-3.6.7-11-.7-11-.7 7.1-4.2 5.8-8.5 7.8-12.7-2.7-.9-3.3 1-8-1.7-5.3-3-3.5-9.5-13.2-9.6-9 0-15.9 4.2-24.1 8.8-1.8-6.6 1.5-9.8 3.2-13.5-3.6-1.4-3.1-9-12.4-13.8 12.4-4 15 8.7 25.5 5-4.5-15.9-35.8-15.6-41.5-47.8 11.5 10.4 20 7.6 21.7 6.7-2.3-4.3-5.2-9.8-7.6-15-3.3-6.7-1.3-14-7-20.8 6.7 2.3 7.3 4.5 9.6 6.8-.5-5.3-1.4-10.7 1.4-16 1.4 2.8 2 6.8 5.3 6.4 2.4-8 5.9-13.6 11-15.6-2.1 8.7 4.6 15.1-1 23.8 5.2 1.8 8-5.4 14.8-3.2-2.7 6.2-5.7 10.8-7.2 24.9-.9 8.8 9.5 11.5 11.6 3.4.5-2 .6-1.7-.1-7.4 13.5 11.7 3.4 24.2 6.7 36 1.9 7 9.8 4.4 9.2 0l-1.4-9.8 4.6 3.2-2.9-9.6s6.4 2.2 8.5 4.6c9 10 6.4 27.1 15 37.5 2.2 2.7 5.6 4.3 8.8 5.7 3.9 1.7 8.5 1.3 12.4 3.2a32.8 32.8 0 0114.5 12z" fill="#218b4d" stroke="#16502d"/><path d="M32.7 110l1 5.6c.7 3.5 1 6-1.4 9.5A3.2 3.2 0 0034 130c2 .7 4 .5 5.7 0 1.5-.6 2.7-1.4 3.8-2l1.4-.7a61.2 61.2 0 00-5.4 21c-.6 5.7 2.7 10.3 7 11.5 4 1.1 8.8-1.4 10.5-6.1 1.2 2.8 1.4 5.6 1.2 8.7-.4 5.7-2.4 12.2-.4 19.2 1.3 4.7 5.6 7 9.1 6.5 1.8-.2 3.4-1 4.6-2.4 1.3-1.3 2-3.3 1.7-5.4l-.4-3a3.2 3.2 0 003.5-4.2l-.7-2.5 1 .6a38.3 38.3 0 016.8 17.3c1.5 6.8 3 14.2 8 20.2 2.8 3.5 6.8 5.1 10 6.5 5 2.2 9.5 1.8 12.3 3.2 2.1 1 3.8 2 5.3 3.2-5-1-11.1-1.5-17.6-.4-5.6 1-10.2 3.9-14.4 6.5-4.3 2.7-8.2 5.1-12.2 5.9h-3.2c.6-1 1.3-2 1.6-2.8 1-2.6 1.2-4.6 2-6.2a3.2 3.2 0 00-2-4.4c-2-.6-3.6-.3-4.3-.3-.6 0-1 0-3-1-1.8-1-2.3-2.6-4-5a13 13 0 00-10.9-5c-8.1-.2-14.6 3-21.2 6.6.5-2.3 2-4 3.2-6.9a3.2 3.2 0 00-1.7-4.2s-.2-.1-.6-.8l-1.9-3.5c-.5-1-1.4-2.1-2.3-3.2 1 .4 1.9 1 3 1.7 1.7 1 3.6 2.4 6 3.1 2.5.8 5.5 1 8.7-.2a3.2 3.2 0 002-3.9c-1.3-4.9-4.7-8.4-8.7-11.3-3.9-3-8.4-5.4-12.8-8.3a41 41 0 01-17.4-19.5c3.1 1.7 6 2.6 8.5 3 4.5.5 7.5-.5 9-1.3a3.2 3.2 0 001.4-4.3c-2.2-4.2-5.1-9.7-7.5-14.8-1.4-2.8-1.7-6-2.4-9.6l-.2-.9a3.2 3.2 0 005.5-2.5c-.3-2.7-.5-5-.5-7.3l.2.2c1.2.8 2.7 1.2 4.2 1a3.2 3.2 0 002.7-2.3c1.2-4.2 2.8-7.3 4.5-9.6z" fill="#219d56"/><path d="M26.7 126.9a8.3 8.3 0 005.5 7.8c1.5.5 3 .7 4.5.7-1 3.4-1.7 7.3-2.3 12.3-.8 7.7 4 15 10.8 17 2.4.6 5 .4 7.6-.5-.7 4.8-2 11 0 18.7 1.9 6.6 9.1 11 14.9 10.2a12 12 0 009.7-7.4l1 3.8c1.5 6.7 3 15 9 22.3 2.3 2.9 5 4.6 7.4 5.8-4.1 1.6-7.6 3.9-10.6 5.7l-4 2.4a8.3 8.3 0 00-5.5-10.5c-3.1-1-6-.5-5.8-.5 0 0 1 .4-.6-.5-.1 0 0-.2-2.3-3.4a20 20 0 00-15-7.2l-1.5.2a8.3 8.3 0 001.7-7.7 26.9 26.9 0 00-10.6-14c-4.4-3.2-9-5.7-13.1-8.5a54 54 0 01-8.8-7c3.7 0 6.5-.9 8.5-2a8.3 8.3 0 003.5-11.1l-7.4-14.8c-.4-.8-.7-1.8-1-3a8.3 8.3 0 004.4-8.2v-.6z" fill="#21ad5e"/><path d="M31 117.8s-1.7 3.3-2.5 7.2c-1 3.8-1 8.3-.7 11.2.5 7.3 2.3 14.5 5 21.5-.3-6-.6-18.6 8.9-26.5a39 39 0 00-7.3 30.3A67.3 67.3 0 0051 184.7c-1.5-6.3-1-10 0-13.2 1.3-3.7 3.1-6.8 3.8-13.7 1.4 4.6-2.3 11-3.2 18.7-.3 3 .5 7 1.3 10.1a146 146 0 015.6 5.7c6.1 6.7 10.2 12.2 16.4 18.2 1.4 1.4 3.4 2.6 5.4 3.8a25.4 25.4 0 01-3.3-16.5c.5-6 1.4-11.7-1.3-17.3 4.6 4.4 3 15.4 2.8 17.5-.4 5.9-.2 11.6 4.7 17.7a35 35 0 004.8 1.7c5.6 1.5 10.7 1.4 16.2 2.4H98c-3.4 0-7.5-.1-10.3-.8a35.3 35.3 0 01-16-8.9 51.6 51.6 0 00-17-5.1 25 25 0 00-18.4 5.4c2.3-4.4 11.7-6.8 13.7-7h5c4.8.5 9.3 1.6 13.7 3.7-4.2-4.4-7.8-9.2-11.7-13.5l-8.1-8c-5.8-4-11.7-6.1-17.3-9-3.5-1.9-15-6.3-18-13 5.6 5.6 12 8.7 18.6 11.6 4 1.8 8.2 3.6 12.3 6a51.6 51.6 0 01-11.2-17.8l-11.4-17c2.1.8 6.3 6.8 9 10.9-5-14.1-8.2-31.9.2-39.5z" style="text-indent:0;text-align:start;line-height:normal;text-transform:none;block-progression:tb;marker:none;-inkscape-font-specification:Sans" font-weight="400" color="#000" fill="#1b6d3c" overflow="visible" font-family="Sans"/><path d="M120.4 227.4s13.6-5.5 27.6-3.2c9.7 1.6 17 10.6 26.6 12.4 3.6.7 11-.7 11-.7-7.1-4.2-5.8-8.5-7.8-12.7 2.7-.9 3.3 1 8-1.7 5.3-3 3.5-9.5 13.2-9.6 9 0 15.9 4.2 24.1 8.8 1.8-6.6-1.5-9.8-3.2-13.5 3.6-1.4 3.1-9 12.4-13.8-12.4-4-15 8.7-25.5 5 4.5-15.9 35.8-15.6 41.5-47.8-11.5 10.4-20 7.6-21.7 6.7 2.3-4.3 5.2-9.8 7.6-15 3.3-6.7 1.3-14 7-20.8-6.7 2.3-7.3 4.5-9.6 6.8.5-5.3 1.4-10.7-1.4-16-1.4 2.8-2 6.8-5.3 6.4-2.4-8-5.9-13.6-11-15.6 2.1 8.7-4.6 15.1 1 23.8-5.2 1.8-8-5.4-14.8-3.2 2.7 6.2 5.7 10.8 7.2 24.9.9 8.8-9.5 11.5-11.6 3.4-.5-2-.6-1.7.1-7.4-13.5 11.7-3.4 24.2-6.7 36-1.9 7-9.8 4.4-9.2 0l1.4-9.8-4.6 3.2 2.9-9.6s-6.4 2.2-8.5 4.6c-9 10-6.4 27.1-15 37.5a22.9 22.9 0 01-8.8 5.7c-3.9 1.7-8.5 1.3-12.4 3.2a32.8 32.8 0 00-14.5 12z" fill="#218b4d" stroke="#16502d"/><path d="M217.3 110l-1 5.6c-.7 3.5-1 6 1.4 9.5a3.2 3.2 0 01-1.7 4.8c-2 .7-4 .5-5.7 0-1.5-.6-2.7-1.4-3.8-2l-1.4-.7a61.2 61.2 0 015.4 21c.6 5.7-2.7 10.3-7 11.5-4 1.1-8.8-1.4-10.5-6.1a18.5 18.5 0 00-1.2 8.7c.4 5.7 2.4 12.2.4 19.2-1.3 4.7-5.6 7-9.1 6.5-1.8-.2-3.4-1-4.6-2.4a6.7 6.7 0 01-1.7-5.4l.4-3a3.2 3.2 0 01-3.5-4.2l.7-2.5-1 .6a38.3 38.3 0 00-6.8 17.3c-1.5 6.8-3 14.2-8 20.2-2.8 3.5-6.8 5.1-10 6.5-5 2.2-9.5 1.8-12.3 3.2-2.1 1-3.8 2-5.3 3.2 5-1 11.1-1.5 17.6-.4 5.6 1 10.2 3.9 14.4 6.5 4.3 2.7 8.2 5.1 12.2 5.9h3.2c-.6-1-1.3-2-1.6-2.8-1-2.6-1.2-4.6-2-6.2a3.2 3.2 0 012-4.4c2-.6 3.6-.3 4.3-.3.6 0 1 0 3-1 1.8-1 2.3-2.6 4-5a13 13 0 0110.9-5c8.1-.2 14.6 3 21.2 6.6-.5-2.3-2-4-3.2-6.9a3.2 3.2 0 011.7-4.2s.2-.1.6-.8l1.9-3.5c.5-1 1.4-2.1 2.3-3.2-1 .4-1.9 1-3 1.7-1.7 1-3.6 2.4-6 3.1-2.5.8-5.5 1-8.7-.2a3.2 3.2 0 01-2-3.9c1.3-4.9 4.7-8.4 8.7-11.3 3.9-3 8.4-5.4 12.8-8.3a41 41 0 0017.4-19.5c-3.1 1.7-6 2.6-8.5 3-4.5.5-7.5-.5-9-1.3a3.2 3.2 0 01-1.4-4.3c2.2-4.2 5.1-9.7 7.5-14.8 1.4-2.8 1.7-6 2.4-9.6l.2-.9a3.2 3.2 0 01-5.5-2.5c.3-2.7.5-5 .5-7.3l-.2.2a6.4 6.4 0 01-4.2 1 3.2 3.2 0 01-2.7-2.3 30.7 30.7 0 00-4.5-9.6z" fill="#219d56"/><path d="M223.3 126.9a8.3 8.3 0 01-5.5 7.8c-1.5.5-3 .7-4.5.7 1 3.4 1.7 7.3 2.3 12.3.8 7.7-4 15-10.8 17-2.4.6-5 .4-7.6-.5.7 4.8 2 11 0 18.7-1.9 6.6-9.1 11-14.9 10.2a12 12 0 01-9.7-7.4l-1 3.8c-1.5 6.7-3 15-9 22.3-2.3 2.9-5 4.6-7.4 5.8 4.1 1.6 7.6 3.9 10.6 5.7l4 2.4a8.3 8.3 0 015.5-10.5c3.1-1 6-.5 5.8-.5 0 0-1 .4.6-.5.1 0 0-.2 2.3-3.4a20 20 0 0115-7.2l1.5.2a8.3 8.3 0 01-1.7-7.7 26.9 26.9 0 0110.6-14c4.4-3.2 9-5.7 13.1-8.5a54 54 0 008.8-7c-3.7 0-6.5-.9-8.5-2a8.3 8.3 0 01-3.5-11.1l7.4-14.8c.4-.8.7-1.8 1-3a8.3 8.3 0 01-4.4-8.2v-.6z" fill="#21ad5e"/><path style="text-indent:0;text-align:start;line-height:normal;text-transform:none;block-progression:tb;marker:none;-inkscape-font-specification:Sans" d="M219 117.8a34 34 0 003.2 18.4 74.1 74.1 0 01-5 21.5c.3-6 .6-18.6-8.9-26.5a39 39 0 017.3 30.3 67.3 67.3 0 01-16.6 23.2c1.5-6.3 1-10 0-13.2-1.3-3.7-3.1-6.8-3.8-13.7-1.4 4.6 2.3 11 3.2 18.7.3 3-.5 7-1.3 10.1a146 146 0 00-5.6 5.7c-6.1 6.7-10.2 12.2-16.4 18.2a25.6 25.6 0 01-5.4 3.8 25.4 25.4 0 003.3-16.5c-.5-6-1.4-11.7 1.3-17.3-4.6 4.4-3 15.4-2.8 17.5.4 5.9.2 11.6-4.7 17.7a35 35 0 01-4.8 1.7c-5.6 1.5-10.7 1.4-16.2 2.4h6.2c3.4 0 7.5-.1 10.3-.8a35.3 35.3 0 0016-8.9 51.6 51.6 0 0117-5.1 25 25 0 0118.4 5.4c-2.3-4.4-11.7-6.8-13.7-7h-5c-4.8.5-9.3 1.6-13.7 3.7 4.2-4.4 7.8-9.2 11.7-13.5l8.1-8c5.8-4 11.7-6.1 17.3-9 3.5-1.9 15-6.3 18-13-5.6 5.6-12 8.7-18.6 11.6-4 1.8-8.2 3.6-12.3 6a51.6 51.6 0 0011.2-17.8l11.4-17c-2.1.8-6.3 6.8-9 10.9 5-14.1 8.2-31.9-.2-39.5z" font-weight="400" color="#000" fill="#1b6d3c" overflow="visible" font-family="Sans"/><g stroke-width="1.2" font-weight="400" color="#000" fill="#1a5d34" font-family="Bitstream Vera Sans"><path style="text-indent:0;text-align:start;line-height:normal;text-transform:none;block-progression:tb;marker:none;-inkscape-font-specification:Bitstream Vera Sans" d="M109.6 155.7c7.8 2.5 10 3.5 14.3 4.2 1.1 1.5-.2 1.5-.6 2a214 214 0 01-13.7-6.2zM111 162c7 3.6 8.9 5 12.9 6.2.7 1.7-.5 1.4-1.1 1.8-5-3.2-5.6-3.6-11.7-8zM109.5 171.2c7.8 2.6 10 3.5 14.3 4.2 1.1 1.5-.1 1.5-.6 2a214 214 0 01-13.7-6.2zM111.7 178.3c7.2 3.3 9.2 4.5 13.3 5.6.9 1.6-.4 1.5-1 2-5.2-3-5.8-3.5-12.3-7.6zM110.3 188c6.8 3.7 8.7 5 12.7 6.4.6 1.7-.6 1.4-1.2 1.8-5-3.3-5.5-3.7-11.5-8.2zM107.4 199.3c7.8 2.5 10 3.5 14.3 4.1 1.1 1.6-.2 1.5-.6 2a214 214 0 01-13.7-6.1zM106.5 211c7.7 2.6 10 3.6 14.2 4.2 1.1 1.5-.1 1.5-.6 2a214 214 0 01-13.6-6.1zM105.8 222.9c7.8 2.5 10 3.5 14.3 4.1 1.1 1.6-.1 1.5-.6 2a214 214 0 01-13.7-6.1zM137.8 208.8c-7.2 3.3-9.2 4.5-13.3 5.6-.8 1.6.4 1.5 1 1.9 5.2-3 5.9-3.4 12.3-7.5zM138.3 198.8c-7.2 3.3-9.3 4.5-13.4 5.5-.8 1.7.4 1.5 1 2 5.3-3 6-3.4 12.4-7.5zM136.9 190.6c-7.2 3.4-9.3 4.5-13.3 5.6-.9 1.7.4 1.5 1 2 5.2-3 5.8-3.4 12.3-7.6zM138.6 180.9c-6.3 4.2-8 5.7-11.8 7.3-.5 1.7.7 1.4 1.4 1.7 4.5-3.6 5-4.1 10.4-9zM140.5 170.2c-6.8 3.8-8.7 5-12.7 6.4-.7 1.7.6 1.5 1.2 1.9 4.9-3.3 5.5-3.8 11.5-8.3zM140.7 163.3c-7.7 2.6-10 3.6-14.2 4.3-1.1 1.6.2 1.5.7 2 5.7-2.5 6.4-2.8 13.5-6.3zM139.9 155c-8 2.2-10.3 3-14.6 3.5-1.3 1.4 0 1.5.4 2 6-2.1 6.7-2.4 14.2-5.4z" overflow="visible"/></g><g stroke-width="1.4"><path style="text-indent:0;text-align:start;line-height:normal;text-transform:none;block-progression:tb;marker:none;-inkscape-font-specification:Sans" d="M181.6-718.4s-7 23.8-6.2 40.4c.5 8 2.1 20.5 2.2 27.7 0 7.3-2.8 17-3.6 25.7-.5 6 .6 12.9.7 20.2 0 5-1 11.9-1 11.9l11.5-16s-3.5-8.3-2.9-16.1c.7-7.5 2.3-16.7 2.3-25.7-.1-8.2-1.8-20.7-2.2-28-.8-14.2 6-38.1 6-38.1z" font-weight="400" color="#000" fill="#218b4d" stroke="#185731" overflow="visible" font-family="Sans" transform="matrix(1.1792 0 0 1.03779 -87.5 861.5)"/><path style="text-indent:0;text-align:start;line-height:normal;text-transform:none;block-progression:tb;marker:none;-inkscape-font-specification:Sans" d="M129 116.5s-8.3 24.7-7.3 41.3c.5 8 2.5 21 2.5 28.8.1 8-3 18.2-4 26.9-.9 9.7 1 16.4 1 16.4.8-2.4 3.1-3.1 5.6-4.1 0 0-2.8-3.5-2-12.3.9-8.1 3-18.1 3-27-.1-8.1-2-21-2.5-28.9-1-15.4 7-40.2 7-40.2z" font-weight="400" color="#000" fill="#21ad5e" overflow="visible" font-family="Sans"/><g stroke-width="1.9"><path d="M100-225.6s3.3-2 6-4.5c4.9-4.6 11.3-17.7 19.4-14.2 1.2.6 2.2 2 2.3 3.3 1 7.4-10.6 12.8-16 14.3-4.8 1.4-11.6 1-11.6 1z" fill="#1e7b44" stroke="#144929" transform="matrix(.78496 -.30842 .35044 .69083 116 435.4)"/><path d="M127 230.3c-1.3.3-2.7 3.4-3.6 6.5-.7 2-2 5.6-2.5 7.7 3.4-1.4 8.8-7.8 9.2-11.5.1-1.6-.7-3-3.2-2.7z" fill="#1b6d3c"/></g></g><g stroke-width=".5"><path d="M105.8 97C99 68.4 61.7 28.4 61.7 28.4s.4-2.8 2-4c1.7-1.4 4.5-1.1 5.8-2 1.4-1 1.1-3.5 2.5-4.4 1.3-.8 4.2 0 5.6-.9 1.3-.8 1.7-3.6 3-4.4 1.4-.7 3.8.7 5.2 0 1.4-.6 1.9-3.7 3.3-4.3 1.4-.6 3.7 1.3 5 .8 1.5-.5 1.8-3 3.2-3.5 1.4-.5 3.9 1.2 5.3.8 1.4-.4 2-2.8 3.3-3.1 1.5-.4 3.7 1.5 5.2 1.2 1.4-.2 2.6-2.2 4-2.4 1.4-.2 3 1.5 4.4 1.3 1.4 0 2.8-2.3 4.2-2.3 1.5 0 2.8 2 4.2 2 1.4 0 2.8-1.8 4.2-1.7 1.4 0 2.8 2.1 4.2 2.3 1.3.1 2.7-1.8 4-1.6 1.5.2 2.8 2.6 4.2 2.9 1.3.2 3.4-1.6 4.7-1.2 1.3.3 2 2.8 3.3 3.2 1.3.4 3.1-1 4.4-.6 1.3.5 2 2.9 3.4 3.4 1.2.6 3.6-1.1 4.8-.6 1.3.6 1.5 3.5 2.7 4.2 1.2.7 3.5-.6 4.7.1 1.2.8 1.3 3.4 2.5 4.2 1.2.8 3.7-.1 4.9.7 1.1.8.8 3.5 2 4.4 1 .9 3.6.2 4.9 1.4 1.3 1.2 1.5 4.3 1.5 4.3S150.9 68.6 143.9 97h-38z" fill="#a44476"/><path d="M135 4.3c1.3.2 4-2.2 5.4-2 1.4.2 2.7 2.6 4 2.9 1.4.2 3.5-1.6 4.8-1.2 1.3.3 2 2.8 3.3 3.2 1.3.4 3.1-1 4.4-.6 1.3.5 2 2.9 3.4 3.4 1.2.6 3.6-1.1 4.8-.6 1.3.6 1.5 3.5 2.7 4.2 1.2.7 3.5-.6 4.7.1 1.2.8 7.7 8 9 8.7-22.3 21-35.4 34.5-44.3 74.7h-6.4c-2.8-28.9-7-64.8 4.1-92.8z" fill="#b15183"/><path d="M140.4 2.3c1.4.2 2.7 2.6 4 2.9 1.4.2 3.5-1.6 4.8-1.2 1.3.3 2 2.8 3.3 3.2 1.3.4 3.1-1 4.4-.6 1.3.5 2 2.9 3.4 3.4 1.2.6 3.6-1.1 4.8-.6 1.3.6 1.5 3.5 2.7 4.2 1.2.7 3.5-.6 4.7.1C157 28.1 140 65.2 133 97.1h-6.3c.2-24 5.6-72 13.6-94.8z" fill="#b9618e"/><path d="M123.4 101.8l-14-4.3C100 70.5 83.5 47.6 67.8 24l5-6.4h5.4l3.2-5 5.5 1 3.6-5 4.1.9 3.6-3.7 4.6 1.4 3.2-3.6 5.4 2.3c9.4 29.6 8.5 65.1 12 96z" fill="#923e66"/><path d="M112.2 97C100.6 71.9 91.7 46.6 71 21.2l1.8-3.6h4c21.8 26.6 29.1 53 40.8 79.6l1.2.5c-4.5-19.7-5.6-44-32.8-84.2l3.6-5 4.1.5c13.6 14.9 29 80 30.1 88.7l-11.6-.5z" fill="#782e51"/><path d="M167.3 12.7l-1.8-4.1-3.6 1.3C151.5 26 152 30.7 149.5 38c4-4 4.6-14.6 17.8-25.2zM180.5 22.2l-1.8-4-3.6 1.3c-18.6 19.3-19.6 28-21.2 34.5 3.4-6.3 13.3-21.8 26.6-31.8zM135.2 4.5l-3.3-3.1-2.8 2.7c-5 21.9-2.1 42-1.2 48.5 1-7.6.7-36.6 7.3-48.1z" fill="#c2779e"/><path d="M132.2 97.1c-1.3-31.7 3.6-62 12-91.3l5.4-2.3 2.3 4.1c-11.9 30-17.3 60-17 90l-2.7-.5z" fill="#9b3b6d"/><path d="M105.8 97C99 68.4 61.7 28.4 61.7 28.4s.4-2.8 2-4c1.7-1.4 4.5-1.1 5.8-2 1.4-1 1.1-3.5 2.5-4.4 1.3-.8 4.2 0 5.6-.9 1.3-.8 1.7-3.6 3-4.4 1.4-.7 3.8.7 5.2 0 1.4-.6 1.9-3.7 3.3-4.3 1.4-.6 3.7 1.3 5 .8 1.5-.5 1.8-3 3.2-3.5 1.4-.5 3.9 1.2 5.3.8 1.4-.4 2-2.8 3.3-3.1 1.5-.4 3.7 1.5 5.2 1.2 1.4-.2 2.6-2.2 4-2.4 1.4-.2 3 1.5 4.4 1.3 1.4 0 2.8-2.3 4.2-2.3 1.5 0 2.8 2 4.2 2 1.4 0 2.8-1.8 4.2-1.7 1.4 0 2.8 2.1 4.2 2.3 1.3.1 2.7-1.8 4-1.6 1.5.2 2.8 2.6 4.2 2.9 1.3.2 3.4-1.6 4.7-1.2 1.3.3 2 2.8 3.3 3.2 1.3.4 3.1-1 4.4-.6 1.3.5 2 2.9 3.4 3.4 1.2.6 3.6-1.1 4.8-.6 1.3.6 1.5 3.5 2.7 4.2 1.2.7 3.5-.6 4.7.1 1.2.8 1.3 3.4 2.5 4.2 1.2.8 3.7-.1 4.9.7 1.1.8.8 3.5 2 4.4 1 .9 3.6.2 4.9 1.4 1.3 1.2 1.5 4.3 1.5 4.3S150.9 68.6 143.9 97h-38 0z" fill="none" stroke="#620040" stroke-width="1.385785"/></g><g stroke-width=".6" font-weight="400" color="#000" fill="#782e51" font-family="Bitstream Vera Sans"><path style="text-indent:0;text-align:start;line-height:normal;text-transform:none;block-progression:tb;marker:none;-inkscape-font-specification:Bitstream Vera Sans" d="M46.8 68.5C56 75.8 76.4 94.3 89 100.7c.9 3.1-.9 2.6-1.8 3.3-11.8-7.9-28-19.8-40.5-35.5zM63.7 56.5c9.8 8.3 26.7 26 36.6 34.4.4 3.2-1.3 2.5-2.3 3-10.6-11.2-24.3-23-34.3-37.4zM40 89c10.3 5.8 33.2 21.1 46.7 25.5 1.3 3-.5 2.8-1.3 3.6-12.9-6-30.7-15.5-45.4-29.1zM42.5 113.3c11.2 4 36.5 14.8 50.5 16.7 1.8 2.7 0 2.8-.6 3.8-13.7-3.7-33-9.7-49.9-20.5zM47.2 137.5c12 .1 39.3 2.4 53.2-.3 2.6 2 1 2.6.7 3.7-14.2 1-34.4 1.4-53.9-3.4zM62.8 156.8c11.9-.8 39.4-.6 53-4.4 2.8 1.8 1.2 2.6 1 3.7-14.1 2-34.2 4-54 .7zM83.7 172c11.6-2.7 38.8-6.8 51.7-12.7 3 1.4 1.5 2.4 1.5 3.5a178.3 178.3 0 01-53.2 9.2zM203.3 68.8c-9.4 7.3-29.8 25.7-42.5 32-.8 3.2 1 2.7 1.8 3.4a178.3 178.3 0 0040.7-35.4zM186.4 56.7c-9.8 8.3-26.8 25.8-36.7 34.2-.4 3.3 1.3 2.6 2.2 3.1 10.7-11.1 24.4-22.9 34.5-37.3zM210 89.3c-10.4 5.8-33.3 21-46.8 25.3-1.3 3 .5 2.8 1.3 3.6 12.9-6 30.7-15.3 45.5-29zM207.4 113.6c-11.2 3.9-36.5 14.7-50.6 16.5-1.8 2.8 0 2.8.6 3.8 13.8-3.6 33-9.6 50-20.3zM202.6 137.8c-11.9 0-39.3 2.2-53.2-.5-2.6 2-1 2.6-.7 3.7 14.2 1 34.4 1.5 53.9-3.2zM185 157c-12-.8-39.4-.8-53-4.6-2.8 1.8-1.2 2.6-1 3.7 14 2.1 34.1 4.2 54 1z" overflow="visible"/><path style="text-indent:0;text-align:start;line-height:normal;text-transform:none;block-progression:tb;marker:none;-inkscape-font-specification:Bitstream Vera Sans" d="M166 172.1c-11.6-2.6-38.7-6.9-51.6-12.8-3 1.4-1.6 2.4-1.5 3.5 13.5 4.3 33 9.5 53.1 9.3z" overflow="visible"/></g><g stroke-width=".5"><path d="M87 154.2c21 19.7 55 19.6 76 0a48.2 48.2 0 00-.1-71.3 56.2 56.2 0 00-76 0 48.2 48.2 0 00.2 71.3z" fill="#218b4d"/><path d="M93.2 81.3a47 47 0 0163.6-.2 40.2 40.2 0 010 59.6 46.9 46.9 0 01-63.6.2 40.3 40.3 0 010-59.6z" fill="#219d56"/><path d="M99.2 80.2a37.2 37.2 0 0150.6-.2c14 13.1 14.1 34 0 47.5a37.1 37.1 0 01-50.6.2 32 32 0 010-47.5z" fill="#21ad5e"/><path d="M103.8 82.8a26.4 26.4 0 0136.2-.3 22.6 22.6 0 01-.2 34 26.3 26.3 0 01-36 .2 22.7 22.7 0 010-34z" fill="#21c168"/><g fill="#1a5d34" font-weight="400" color="#000" font-family="Bitstream Vera Sans"><path d="M85.6 84l2.3-1.2c21.2 39.7 47.8 56.3 69.9 75.8l-4.6 2.5c-21.8-19.2-46-36.7-67.6-77zm12.8-10l1.8-.6c19 28.5 42.6 52.7 69.7 73.6l-3.4 3.6a313.4 313.4 0 01-68-76.5zM76 98l2-1.6c19.4 38 42.3 53 63.2 70l-6 1.2C114.3 150.7 95.6 136.3 76 98zm39.6-29l1.8-.7a315.2 315.2 0 0060 65.1l-3 4.5a326.8 326.8 0 01-58.8-69zm-44.7 49l1.8-1.7c12.5 25 31 40.3 47.7 52.8l-7.9-1.6A124.8 124.8 0 0170.9 118zm64-49l1.8-.7c16.5 25.5 29.3 34.3 42.6 44.5l-.8 5c-13.3-10.1-27-23-43.7-48.8z" style="text-indent:0;text-align:start;line-height:normal;text-transform:none;block-progression:tb;marker:none;-inkscape-font-specification:Bitstream Vera Sans" overflow="visible"/><path d="M166 86.6l-2.1-1.3c-24 38.2-51.9 53-75.4 71l4.4 2.8c23.2-17.7 48.7-33.6 73.2-72.5zM154 76l-1.8-.8a308.3 308.3 0 01-73.8 68.7l3 3.8c28.9-19.3 51.3-44.2 72.6-71.7zm20.7 25.2l-2-1.6c-22.2 36.6-46 50.1-68.2 65.8l6 1.5c22-15.5 41.6-28.6 64.2-65.7zm-37.4-31.4l-1.8-.8a310.2 310.2 0 01-63.4 60.6L75 134c24.9-18.3 43.1-40 62.4-64.4zm40.9 51.7l-1.6-1.7c-14.4 24-34 38.2-51.6 49.5l8-1a126.5 126.5 0 0045.2-46.8zm-60.1-53l-1.9-.8C98 92 85.8 99.7 71.8 109l.4 5c14-9.2 27.3-21 45.9-45.6z" style="text-indent:0;text-align:start;line-height:normal;text-transform:none;block-progression:tb;marker:none;-inkscape-font-specification:Bitstream Vera Sans" fill="#1b6d3c" overflow="visible"/></g><path d="M-281.4 1320.4c0 8.8-7.2 16-16.2 16-8.9 0-16.1-7.2-16.1-16 0-8.9 7.2-16 16.1-16 9 0 16.2 7.1 16.2 16z" transform="matrix(-2.34303 2.20672 2.37465 2.22024 -3707.6 -2156.3)" fill="none" stroke="#16502d"/></g></g></svg>