<svg xmlns="http://www.w3.org/2000/svg" width="396.6" height="332.5" version="1.0"><path style="marker:none" d="M198.2 0A20.3 20.3 0 00178 20.3a20.3 20.3 0 1040.5 0c0-11.2-9.1-20.3-20.3-20.3zm2.7 44.5c-4-.1-8 .8-12 2.8a30.1 30.1 0 00-14 16c-3.3 9.2-2.9 22.4-3 34.1v3.4c0 3.4 0 6.7-.4 9.6-2 16.2-5.4 37.5-5.4 53.6 0 8.1 0 19.3.7 30 .7 10.8 1.8 21.5 2.9 25 0 0 1.5 5.7 2.5 8.1 1 2.7 4.4 8.8 4.4 8.8 4.6 9.3 12.9 17 22 17 15 0 25.4-20.8 28.2-32.6 2.8-11.3 3.5-37.9 3.5-54.2 0-7.2-.3-17-1.3-25.6-1.2-11-2.8-21-3.5-30.4-.6-8.3-3.8-19.5-2.2-27.6l.5-3.5c.4-2 .5-4 .7-5l-9-2.2-1.4-.1.8-1.3s2.1-4.1 6-8l3-3s-2-4-4.6-6.8c-2-2.2-5.6-4.7-6.3-5.1-4-2.2-8-3-12.1-3zm-.2 2.5s1.8.5 1.8 1.1c0 .5-1.3 1.3-1.3 1.3s-4.8 1-7 4c-.9 1.3-1.9 2.4-2.3 3.8-.5 1.3-.7 2.5-.7 2.7 0 1.3 1.3 3.8 2.8 4.9 1.7 1.1 3.3 2 4 2.3 1.7.7 3.3 1 4.5 1.1 1.2.2 3.7 0 5.9-.3l2.4-.3c.5 0 1.7.4 1.9 1 .1.6-1 1.3-1.4 1.4l-2.6.5a27 27 0 01-6.5.3 19 19 0 01-9.7-3.9c-1.9-1.3-3.4-3.7-3.6-5.1a8.7 8.7 0 00-5.2 4.9c-.4.7-2 4.2-1 7.3a12 12 0 003.7 5.8c1 .6 4.8 2.2 4.8 2.2s3 .8 2.9 1.7c-.2 1-3.2.8-3.2.8s-4.5-1.6-6-2.7c-.9-.6-3.8-3.5-4.8-7.3a14.5 14.5 0 013.4-12.3A12.7 12.7 0 01189 59a17 17 0 013.2-7c3.2-4.3 8.6-4.9 8.6-4.9zm10.7 8.6c1.7 0 4.5 1.4 5.1 3.1-.8 1.7-3.5 2.9-5.2 2.9-1.8 0-4.3-1.3-5.2-3 .9-1.6 3.5-3 5.3-3zm14.4 4.8c-1.4 1.1-2.1 2.2-3.4 3.5a25.5 25.5 0 00-4.5 5.5l2-.6c1-.3 4.7-1 8.2-1 1.5 0 3.7.5 5.2 1.3 2 1 2.7 1.6 3 1.7-.2-.2.3-2-.3-3.9a7.4 7.4 0 00-2.8-3.5c-3-2-6.8-2.8-7.4-3zm.5 9c-1.3.1-3.8.7-5.9 1.3-.2 0 0 .1-.3.2l6.9 1.9c.9-.6 4.4-2.1 5-2.8-.3 0-4-.7-5.7-.6zM178 83.1c.6 0 1.4.3 1.4.3s2.7 2.6 5.1 3.7c1.3.6 7 2.7 12.1 3 6.3.3 13.2-1.6 13.2-1.6s2 .1 2.2.8c.2.7-1.6 1.6-1.6 1.6s-7 2-13.8 1.7a42.8 42.8 0 01-13.2-3.3c-3.2-1.4-5.6-4-5.6-4s-.7-1.6-.3-2l.5-.2zm-.3 11.8c4.8 2 8.2 3.7 12.7 4.7 8.8 2 18.2 1.7 26.7-3.8 0 0 1.7-.4 2 .2.4.5-.7 2-.7 2-9.3 6-19.5 6.4-28.8 4.2-4.6-1.1-8-3-12.9-5 0 0-1.1-1-1-1.5.3-.6 2-.8 2-.8zm-.2 11.5c5 2 8.5 3.7 13.2 4.8 9 2 19 1.6 28-3.8 0 0 1.7-.4 2 .1.4.6-.8 2-.8 2-9.6 6-20.4 6.5-30 4.2-4.9-1-8.5-3-13.5-4.9 0 0-1-1-.8-1.6.2-.5 1.9-.8 1.9-.8zm44 11.6s1.7 0 2 .6c.2.5-1 1.8-1 1.8-5.5 2-9.3 3.6-14.5 4.7-10.4 2.3-22 2-32.4-4 0 0-1.2-1.5-.8-2 .4-.5 2.2-.2 2.2-.2a42.5 42.5 0 0030.2 3.8c5-1 8.9-2.8 14.3-4.7zm1 11.4s1.8.2 2 .8c.3.5-.9 1.6-.9 1.6-5.8 2-9.9 3.8-15.4 4.9a50.5 50.5 0 01-34.3-4.2s-1.4-1.5-1-2c.4-.6 2.4-.2 2.4-.2a47.3 47.3 0 0032 3.8c5.3-1 9.4-2.8 15.2-4.7zm-49 12.8c6 2 10.1 3.8 15.6 4.8 10.8 2 22.6 1.7 33.1-3.8 0 0 2.1-.4 2.5.2.5.5-1 2-1 2a53.2 53.2 0 01-35.4 4c-5.7-1.1-10-2.8-16-4.8 0 0-1.2-1.2-1-1.7.3-.6 2.2-.7 2.2-.7zm-.7 12.3c6 2.2 10.3 4.2 16 5.4 11 2.3 23.2 1.9 33.9-4.3 0 0 2.1-.4 2.5.2.5.6-1 2.3-1 2.3a50.6 50.6 0 01-36.3 4.5c-5.9-1.3-10.3-3.2-16.4-5.4 0 0-1.2-1.3-1-2 .3-.5 2.3-.7 2.3-.7zm.7 14.1c6 2.3 10.3 4.2 16 5.4a47 47 0 0033.7-4.3s2.3-.4 2.7.2c.5.6-1.1 2.4-1.1 2.4a50.2 50.2 0 01-36.2 4.4c-5.9-1.2-10.3-3.1-16.4-5.4 0 0-1.2-1.3-1-1.9.3-.6 2.3-.8 2.3-.8zm-9.8 12.3a35 35 0 00-9.5 2c-8.7 4.5-20.4 12-31 21.2-13.7 11.7-26.5 22.6-31.8 28.4 2.1 2.8 4 5.3 4.9 7.4 1 2.1 2 5 2.7 8.5 0 0 .8 10.6.1 18.3-.7 8.8-2 15.6-2 15.6s13.7-4.3 28.3-11.1c13.2-6.2 28.2-17.9 32-20.5 4.6-3.4 10-12.1 14.6-17.2-3.1-5-3.4-7.5-5.3-15-1-4.2-2-12.7-2.7-23.5-.3-5.2-.1-8.9-.3-14.1zm69 0c-.2 5.2.1 8.9-.2 14.1a180 180 0 01-2.5 24.5c-1.8 7.4-2 9-5.1 14 4.5 5 9.4 13.8 14.1 17.2 3.8 2.6 18.8 14.3 32 20.5 14.6 6.8 28.5 11.1 28.5 11.1s-1.3-6.8-2.1-15.6c-.7-7.7.1-18.3.2-18.3a43 43 0 012.7-8.5c.9-2.1 2.7-4.6 4.9-7.4-5.3-5.8-18.2-16.7-31.8-28.4a170 170 0 00-31.2-21.2 35 35 0 00-9.5-2zm-59.4 2.3c6.1 2.2 10.4 4.2 16 5.4a51 51 0 0025.6-.6c2.8-1 5.6-2.1 8.3-3.7 0 0 2.1-.4 2.6.2.4.6-1 2.4-1 2.4a50.6 50.6 0 01-36.4 4.4c-5.8-1.2-10.1-3.2-16.2-5.4 0 0-1.7-1.6-1.4-2.2.3-.6 2.5-.5 2.5-.5zm-19.6 4.2c.8-.2 2.2 2 2.2 2 2.4 19.2 1.5 37.2.6 55 0 0-.7 1.8-1.4 1.8-.6 0-1.3-1.6-1.3-1.6a94.8 94.8 0 00-17.3-35c3 15.6 3.4 31.5 1.4 46.5 0 .1-.5 3.7-1 3.8-.7 0-1.6-2.2-1.7-2.2-3-10.9-7.6-24-15.5-33.6 1 3.6 1.5 6 2 9.7 1.4 10.3 1.1 23-.3 33.7 0 0-.8 1.6-1.4 1.6-.6 0-1.3-1.8-1.3-1.9-3.5-11.1-6.2-23.1-16.8-30.5 0 0-1.4-2.3-.8-2.9.5-.6 2.3.7 2.3.7 9.6 6.6 13 16.5 15.8 25.9a91.9 91.9 0 00-3.5-40.9s-.2-1.4.3-1.7c.5-.4 2.3.8 2.4 1a70.8 70.8 0 0117 30.1c1.5-14.5 1.2-28.6-2.5-43.7 0 0 .3-2.1.7-2.4.6-.3 2.1 1 2.3 1.1a88.2 88.2 0 0118.3 33.1c.6-15.4.9-30.9-1.2-47.2 0 0 0-2.2.7-2.4zm89.2 0c.7.2.6 2.4.6 2.4-2 16.3-1.8 31.8-1.1 47.2a88.2 88.2 0 0118.3-33c.1-.3 1.7-1.5 2.2-1.2.5.3.8 2.4.8 2.4-3.8 15-4 29.2-2.6 43.7a70.8 70.8 0 0117-30.2c.1 0 2-1.3 2.4-1 .5.4.4 1.8.4 1.8a91.9 91.9 0 00-3.5 40.9c2.8-9.4 6.1-19.3 15.7-26 0 0 1.8-1.2 2.4-.6.5.6-.8 2.9-.8 2.9-10.7 7.4-13.3 19.4-16.9 30.5 0 0-.7 1.9-1.2 2-.7 0-1.5-1.7-1.5-1.7a134.3 134.3 0 01-.3-33.7 70 70 0 012-9.7 92.5 92.5 0 00-15.5 33.6s-1 2.3-1.6 2.2c-.6 0-1-3.7-1.1-3.8-2-15-1.6-30.9 1.4-46.4a94.8 94.8 0 00-17.3 35s-.6 1.5-1.3 1.5c-.6 0-1.4-1.7-1.4-1.7-.9-17.9-1.7-35.9.6-55 0 0 1.4-2.3 2.3-2.1zm-69.8 9c6 2 10 3.8 15.6 4.8 10.8 2 22.6 1.7 33-3.8 0 0 2.2-.4 2.6.2.5.5-1 2-1 2a53.2 53.2 0 01-35.4 4c-5.7-1.1-10-2.8-16-4.8 0 0-1.2-1.2-1-1.7.3-.5 2.2-.6 2.2-.6zm49 13s1.8 0 2 .6c.3.5-.9 1.7-.9 1.7-5.8 2-9.9 3.7-15.4 4.8-11 2.2-23.3 2-34.3-4 0 0-1.4-1.5-1-2 .4-.6 2.4-.2 2.4-.2a47.2 47.2 0 0032 3.6c5.3-1 9.4-2.6 15.2-4.6zm-.8 12.3s1.7.1 2 .7c.1.5-1 1.7-1 1.7-5.5 2-9.3 3.7-14.5 4.8-10.5 2.2-22 2-32.4-4 0 0-1.2-1.5-.8-2 .3-.6 2.2-.2 2.2-.2a42.5 42.5 0 0030.2 3.8c5-1 8.8-2.8 14.3-4.8zM181.5 235c4.1 1.9 5.6 2.7 9.4 3.7 7.4 2 17.1 1.7 24.3-3.5 0 0 1.5-.4 1.8.1.2.6-.7 2.1-.7 2.1a31.4 31.4 0 01-26 3.7c-4-1-5.5-2-9.6-3.8 0 0-1-1.1-.8-1.6.2-.5 1.6-.7 1.6-.7zm-92-.4s2.8 3 4.7 6.7c1.7 3.2 2.1 7.5 2.1 7.5s-7.8 2.4-10.8 5.3c-3 3-7 7-9.6 10.3-2 2.4-6.2 8.6-6.3 11.6-.1 2.3 5.2 7.7 6.3 8.6 2 1.7 5.4 3.2 7.1 5.3a10 10 0 012.6 6.4c.3 3.4-.3 2-1.5 4.3-.6-.3-1.6-.6-2.2-.7-.9-.2-1.6-.3-2.6-.2a10 10 0 00-5 1.6c-1.3-1.5-3.4-2-5.3-4.4-1.6-1.9-3-3.5-5.5-5-2.7-1.7-6.3-3-8.7-3.5-2.3-.4-6.2-.2-9 .5-3.8 1-6.5 2.7-9.3 4.8a12 12 0 00-2.9 3 8.9 8.9 0 00-4.9-1.7 7 7 0 00-2.3.1c-1 .2-1.5.7-2.3 1.2 0-.5-.3-.9-.4-1.2-.4-1.4-1.9-5.7 3.2-9.2 2.7-1.8 6.9-2.3 10.6-3.7 5.9-2.3 11.1-5.3 12-5.6.7-.2 3.5-1.4 4.9-2.8 4-4.1 9-12.2 15.6-19.5a318.2 318.2 0 0119.5-19.7zm-38 56.5c10.8 0 19.4 8.8 19.4 19.6a19.4 19.4 0 11-38.9 0c0-10.8 8.8-19.6 19.5-19.6zm-21.4 6.3c.7.2 1.3 1.2 2 1.7-2.4 4.7-2.9 9.9-2.9 9.9s-1.1-3-3.7-8.8l-.1-1.5c.1-.1.5-1.2 2-1.5 1.1-.3 2.3 0 2.7.2zm52.3 5.5c-.3 1.7.5 3.7-1.1 5.6-2.5 3-8.7 5.6-8.7 5.6s4.3-5.8 3.5-10.5v-.5c.3-.2 1.2-1.3 3-1.4 2-.2 3 1 3.3 1.2zm-60.5-6l-1.8 3.6c-.8 1.9-2.7 4.8-3 6.8-.2 1.9-.2 3.8.5 5.5a7.4 7.4 0 002.6 3.2c.7.4 1.6.5 1.6.5.6-1 1.3-2.2 2.3-3 1.1-1 2.3-1.3 3.5-1.7h1.2c-1-1.6-3.3-4.3-4.9-7.7-1.7-3.6-2-7.1-2-7.1zm7 16.8c-.3 0-.5 0-.7.2-1.2.3-1.8.4-2.6 1a7.6 7.6 0 00-2.1 2.6c.4.7 1.6 2.2 1.9 2.5 2.3 1.9 8.5 3.7 8.5 3.7s-2.3-3-3.4-5.9c-.7-1.8-1.6-3.2-1.6-4.1zM307 234.5s-2.8 3-4.7 6.6c-1.7 3.2-2.2 7.5-2.2 7.5s8 2.5 10.9 5.4c3 3 7 7 9.7 10.3 1.9 2.4 6.2 8.6 6.3 11.6 0 2.3-5.2 7.7-6.3 8.6-2 1.7-5.5 3.2-7.2 5.3a10 10 0 00-2.6 6.4c-.3 3.4.3 2 1.5 4.3.6-.3 1.6-.6 2.3-.7.8-.2 1.5-.3 2.5-.2a10 10 0 015 1.6c1.3-1.5 3.4-2 5.3-4.4 1.6-1.9 3.1-3.5 5.5-5 2.7-1.7 6.3-3 8.7-3.5 2.3-.4 6.2-.2 9 .5 3.8 1 6.5 2.7 9.4 4.8 1.1.9 2 1.9 2.8 3a8.9 8.9 0 015-1.7 7 7 0 012.3.1c.9.2 1.5.7 2.3 1.2 0-.5.2-.9.3-1.2.4-1.4 1.9-5.7-3.2-9.2-2.6-1.8-6.9-2.3-10.5-3.7-6-2.3-11.2-5.3-12-5.6-.7-.2-3.6-1.4-5-2.8-4-4.1-9-12.2-15.5-19.5a320.7 320.7 0 00-19.6-19.7zm38 56.5a19.4 19.4 0 00-19.4 19.6 19.4 19.4 0 1039 0c0-10.8-8.8-19.6-19.6-19.6zm21.5 6.3c-.8.2-1.2.7-1.9 1.2 2.4 4.7 2.7 10.4 2.7 10.4l4-9v-1.4c0-.1-.7-1-2.1-1.4-1.2-.3-2.4 0-2.7.2zm-53 5.3c.4 1.7.2 3.9 1.8 5.8 2.5 3 8.7 5.6 8.7 5.6s-4.1-5.7-3.3-10.4v-.5c-.4-.2-1.5-1.4-3.2-1.5-2-.2-3.6.8-4 1zm61.1-5.7s1.3 2.2 1.8 3.5c.8 1.9 2.7 4.8 3 6.8.2 1.9.2 3.8-.4 5.5a7.4 7.4 0 01-2.7 3.2c-.7.4-1.6.5-1.6.5-.6-1-1.2-2.2-2.3-3-1-1-2.3-1.3-3.5-1.7h-1.2c1.1-1.6 3.4-4.3 5-7.7 1.6-3.6 1.9-7.1 1.9-7.1zm-7 16.5c.3 0 .5 0 .8.2 1.2.3 1.7.6 2.6 1.2 1 1 1 1.4 1.5 2.4-.5.7-1 2.4-1.4 2.7-2.3 1.9-8.4 3.7-8.4 3.7s2.2-3 3.3-5.9c.7-1.8 1.6-3.3 1.7-4.3zM51.2 56.9c-2.2.2-3.4.7-5.6 2.2-1.1 2-2.1 4.5-3.2 6.7a30.4 30.4 0 00-1.2 23.7c-.2-7.5 6-8 9-5.8v-2c.3-3.7 1.9-7 3.4-9.8a25 25 0 014-5.4c1-1 2.1-1.8 3.2-2.7 3.2-2.9-2.7-7.4-9.6-6.9zm-14.3.8c-5.6 0-11.8 4.3-11.7 7.4a55 55 0 007.4 35c1 1.6 1 2.1 2.3 3.6-2.8-7.7 3-12.6 5-10.5a35.9 35.9 0 012.3-33.7 8.3 8.3 0 00-5.3-1.8zm27.7 7c-1.3 1-3.5 2.3-4.7 3.4-.4.3-2.5 2.2-4 4.7-1.5 2.6-3.1 5.5-3.4 8.8v.7c2-2.3 3.8-3.5 5.6-4 2.9-.6 5.2.8 5 2.3 2-4.4 10.4-7.6 10.4-7.6.2 0 2.5-1.1 3.2-2.2.6-1-.4-2.2-.7-2.6-.2-.4-2-2-5-2.8-2.5-.7-4.2-.8-6.4-.7zm-42.4 1.1c-6.8.3-10.9 4-11.7 14l.4 3.4c.8 5.1 2.2 11.3 3.8 14.3A79 79 0 0030.2 117c2.6 2.4 4 3.8 7.5 5.7-8-5.3-6.6-14.8-3-15.4A53.7 53.7 0 0123 82.5a61.4 61.4 0 01-.9-16.7zm37 15.5c-2 0-4.6 1.3-6.7 4.1a27 27 0 006.4 14.1c2.8 2.8 5.7 4.2 9.5 5.4-1.6-2.2-.9-3.1.5-3.8-2-1.3-2.8-2.5-4.3-4.7a18.7 18.7 0 01-2-12.7C62.5 82 61 81 59 81.3zM7.6 83c-7.1 3-9.3 11.3-4.8 24.6l2 2.9a79.2 79.2 0 0029.8 24.7c5.5 2.4 9 3.5 15.7 4.3-6.4-1.8-7.6-3.2-9.2-5.7-1.4-2.4-2.1-4.4-1.1-7-4.5-2.1-8.1-4.5-11.6-7.6-5.9-5.1-12-13-15.7-19.8-2-3.6-4-10.3-4.9-15.5l-.2-1zm40.8 2.1c-2.6-.1-6.1 2.8-5.8 9.1 1.1 2.5 2.4 4.9 4 6.7 5.8 6.8 13.3 11 23.3 12-2.1-1.2-3.1-3-1.3-5.5a26.3 26.3 0 01-11.3-6.5 25 25 0 01-4.9-7.8c-.9-2-1.5-4.4-1.9-6.8-.5-.7-1.2-1.1-2-1.2zm-9 10.5c-.7.2-1.3.7-1.6 1.5a13 13 0 00.8 10c2.2 2.3 3.8 4.2 5.4 5.4a64 64 0 0021.1 7.3c4 .7 6.2 1.2 10 .7-4.3.1-5.6-3.9-4.1-5.5-11.2-.7-19.5-5-26-12.7a30.2 30.2 0 01-3.7-5.7c-.6-.8-1.3-1-2-1zm96.8 6.6c-6.9.1-13.7.6-19.9 1-5.4.2-13.2 1.1-20.8 1.7.6 1 1.1 1.7 1.6 2 2.7 2.2 4.5 3 6.3 3.5 2 .5 4.1.6 7.7 1 8.3.8 22.2 0 32.4-.7 5.8-.3 12.1 1 17.2 2.1l6.5 1.6 1.3.3v-.1c.3-3 1.2-6.2 1.2-9.7-3.5-.7-10.3-2-13.6-2.3-6.2-.5-13-.6-19.9-.4zm-64 .3c-2.4.6-.3 3.3-.2 3.5.4.7 1.6.6 2.4.8 7 1.6 15.2.1 18.9-.7l-.7-1c-5 .2-9.9.3-13.5-.4a29 29 0 01-6.8-2.2zm22.3 5.4a47 47 0 01-20.6.8l-1.8-.5c-2.2 1.6-.4 3.3 1.8 4.8 7 .2 14.5-1 22.2-3.7l-.6-.5-1-1zm-57.3 1.7c-2.1.2-2 3.8-.8 6.7 1.6 4 6 7.7 7.6 8.6 1.2.5 1.9 1.5 3 1.9 5.6 2 16.6 3.2 22.6 2.7 5.3-.4 11.2-1.3 16.5-3.5-2.8.3-5.4-.4-6.4-1.4-1.2-1.1-.5-2.6-.5-2.9a42 42 0 01-14.4.2c-5.8-1-16.8-4-22-7.8l-4.7-4.3-1-.2zm61.2 1.1c-7.9 3-15.7 4.5-23 4.5-2.6.6-1.7 4.6 5.3 4 9-1.9 16.6-5.7 19.6-7.4-.7-.2-1.3-.7-2-1zM2 112.4c-6 5.5.8 27.4 21.4 35.6a64 64 0 0013.8 4c9.3 1.3 24.9 3.2 33.6.6 3-1 5.3-.9 8.4-2.3-4.4 1.7-8.3 1-12.8-.2-5.1-1.3-6.2-4.4-5.5-7.3-3-.2-7.7-.1-11.4-.6-6-.8-11.7-3-16-4.8a81 81 0 01-21-14c-2.8-2.7-10.3-11.1-10.5-11zm100.7.5c-1 .7-9 5.4-19.2 8-3.7 2-.6 2.9 3 3 1.6 0 2.7 0 4.1-.5 3-1 6.3-3.2 9.6-5.6 2.6-2 4-3.5 5-4.4l-2.5-.5zm40.9.5l-5.4.3-6.6 12.7c1 5.7 4.7 2.4 8.3-.3l5.3-12.7h-1.6zm3.6 0l-5 12.7c.8 4 2.9 4 5 2.5 1-.6 1.8-1.5 2.7-2.3a5699 5699 0 003.7-12.1c-2.2-.4-4.2-.7-6.4-.8zm-39 .3c-.4.3-2.9 2.4-6.4 5-2.7 2-5.6 4-8.3 5.6-1.7 2.8 0 3.4 2.2 3 1.4-.2 2.7-1 4.3-1.4 3.5-3.1 9.1-9.5 11.1-11.9h-.4c-1 0-1.8-.2-2.6-.3zm27.6 0l-7 .3c-.3.6-3.5 6.2-8 13.4-.5 4.3 1.8 4.7 8.3-.8l6.7-12.9zm-22.1.5c-.8.9-7 8-11.3 12.2-1.2 4.7 4.4 2 5.9 1l2.4-3c3.7-4.7 6.2-8.1 7.6-10l-4.6-.2zm12.7 0l-5.6.1c-.6 1-4 5.5-8.6 11.3l-1.5 2c-1.3 3.2 2.5 4.6 7.6 0 4.2-6.6 7.3-12 8.1-13.4zm29 .3c-.1.7-2.5 7-3.6 12-.6 3 3.3 7.2 6.9 1.2 1-5 2.5-11.3 2.7-12l-1.5-.4-4.4-.8zm7.9 1.6l-2.7 12.2c1.3 5 3.3 5 4.6 4.2.5-.4.6-1 1.1-1.5l1.7-13.6-1.7-.5-3-.8zm-73.9 10.5l-.3.2a57.2 57.2 0 01-19.5 4.9c-6.4.5-17.4-.7-23.5-2.9l-2.8-1c-2.3 6.7 7.7 10.4 16 12.3a47 47 0 0021.5-2.2 62.3 62.3 0 0016.2-9c-5.1 2.6-8.8-.7-7.6-2.3zm10 2.9a57.7 57.7 0 01-34.7 13.3c-4.5 6 12.2 6.3 21.3 4.4a59 59 0 009.4-6.2c3-2.4 6.8-5.8 10.7-10.4-5 2.3-6 .5-6.6-1.1zm41.4 0l-7 16.5c-1 5.7 5 8 10.2-1.1 2-6.3 3-9.1 4.6-14.6l-1.7 1.1c-1.7 1.2-3.5 1.5-6.1-2zm-2.4.3c-3.4 3-6.6 4.2-8.6.3-3.1 6-5.4 10-9.3 16.8.6 4.5 2.8 5.1 5.1 4 2-1 4-3.3 6-4.8l6.8-16.3zm12.4.4c-1.6 5.4-2.6 8-4.5 14.2-1 6.7 4 9 8.4.8 1.4-6 2-8.6 3-13.7-2.6 4.2-7.2 1.8-7-1.3zm-23.5.4c-6.2 5.8-8 3.8-8.8.8-3.4 5.4-6.8 9.8-11 15l-1.1 1.2c-2.9 6.2 5.5 5.3 11.9-.5 3.7-6.6 5.8-10.4 9-16.5zm-19 .4c-4.1 5-8.3 8.9-11.6 11.6-2.1 1.7-4.5 3.3-7 4.8-1.7 5.3 5.8 4 14 .3l2.2-2.5c4-5 7.2-9 10.4-13.9-1.4 1.8-7.5 4.3-8-.3zm51.3 1.2l-3 13.3c1.4 11.4 5.1 5.9 7.6 3.2.6-5.1.6-8.7 1.3-13.7-3.2 2-4.6.3-5.9-2.8zM154 151c-1.2 1.9-4.1 3.3-5.9 3-2.2-.5-3.2-3.1-3.1-4l-4 11.8-4.5 11.8c1.4 4.6 3.8 7.2 10.8.1l3-10.1c1.1-4.2 2.3-6.6 3.7-12.6zm-12 .2c-1 2-3.7 3.3-6 3-2.3-.4-4-1.7-4.1-3-2.7 6.4-4 9.9-6.1 14.3l-4.1 8c2.1 6.6 6 5.4 11.8.2 1.7-4.4 7-17.4 8.6-22.5zm-13.3 1c-1.5 3.2-9 6.4-10.3-1.3-3 5.1-5 8.7-7.4 12.2-1.8 2.6-4.7 6-7.5 9.4 1.2 6.2 4.5 8.2 15 1l4.4-8.6c2-4.2 3.3-6.7 5.8-12.8zm-42.1-2.2l-5.3 2.4c-3.2 1.4-5.7 1.8-8.3 2.6a86.6 86.6 0 01-32.7-.1 85 85 0 01-9.8-2.1c-1.7 5.1 13 20.7 42 16.1 1.7-.8 4.8-1.8 6.4-2.6 6-3.2 11.4-7 14.7-10 1.6-1.4 3.1-2.1 5.6-4.5-4.7 2.4-9 2.4-11 1-1.5-1.2-1.3-2.6-1.6-2.8zm69.6 1.8c-1.4 6-5 19.5-6 23 2.4 4 7.5 5.3 13-1.2v-4.8c0-5.4.2-10.2.7-16.2l-1.2 1.1c-1.2 1.2-2.5 2.2-3.9 1.7-1-.4-1.8-.5-2.6-3.6zm-41.3.5c-2.3 3-12 5.4-11.2-1.6-3 3-5.7 5.4-7.6 7.1-3.5 3-8.5 7-14.8 10.2l-2.9 1.3c-1 5.8 9.3 12 21 3 3.1-3.7 7.1-7.7 9.1-10.5 2.2-3.1 3.8-4.9 6.4-9.5zM345.4 57c2.3.2 3.5.7 5.6 2.2 1.2 2 2.2 4.5 3.2 6.7a30.4 30.4 0 011.3 23.7c.2-7.5-6-8-9.1-5.8v-2c-.3-3.7-1.8-7-3.3-9.8a25 25 0 00-4-5.4c-1-1-2.2-1.8-3.2-2.7-3.2-2.9 2.7-7.4 9.5-6.9zm14.3.8c5.7 0 11.8 4.3 11.8 7.4a55 55 0 01-7.5 35c-1 1.6-1 2.1-2.2 3.6 2.7-7.7-3-12.6-5-10.5a35.9 35.9 0 00-2.3-33.7 8.3 8.3 0 015.2-1.8zm-27.6 7c1.3 1 3.4 2.3 4.7 3.4.3.3 2.5 2.2 4 4.7 1.4 2.6 3.1 5.5 3.3 8.8v.7a10.7 10.7 0 00-5.5-4c-2.9-.6-5.2.8-5 2.3-2-4.4-10.4-7.6-10.4-7.6-.2 0-2.5-1.1-3.2-2.2-.6-1 .5-2.1.6-2.6.2-.4 2-2 5.1-2.8 2.5-.7 4.2-.8 6.4-.7zm42.3 1.1c6.9.3 11 4 11.7 14-.1 1.2 0 2-.3 3.4a55.1 55.1 0 01-3.8 14.3 79 79 0 01-15.6 19.5c-2.6 2.4-4.1 3.8-7.5 5.7 8-5.3 6.5-14.8 3-15.4a53.7 53.7 0 0011.7-24.8c1.2-5.7 1.3-11.8.8-16.7zm-37 15.5c2.1 0 4.7 1.3 6.8 4.1a27 27 0 01-6.4 14.1 22.1 22.1 0 01-9.5 5.4c1.6-2.2.9-3.1-.5-3.8 2-1.3 2.8-2.5 4.3-4.7 2.1-3.2 2.8-8.6 2-12.7-.1-1.6 1.3-2.6 3.4-2.4zM389 83c7.2 3 9.4 11.3 4.9 24.6l-2.1 2.9a79.2 79.2 0 01-29.8 24.7 46.4 46.4 0 01-15.6 4.3c6.3-1.8 7.6-3.2 9.1-5.7 1.5-2.4 2.2-4.4 1.2-7 4.5-2.1 8-4.5 11.6-7.6 5.8-5.1 12-13 15.7-19.8 2-3.6 4-10.3 4.9-15.5l.1-1zm-40.8 2.1c2.6-.1 6.2 2.8 6 9.1a28.7 28.7 0 01-4 6.7 33.7 33.7 0 01-23.4 12c2.1-1.2 3-3 1.3-5.5 4.2-1.3 7.9-3.2 11.2-6.5a25 25 0 005-7.8c.8-2 1.5-4.4 1.9-6.8.4-.7 1.2-1.1 2-1.2zm9.1 10.5c.6.2 1.2.7 1.6 1.5a13 13 0 01-.8 10c-2.2 2.3-3.8 4.2-5.4 5.4a64 64 0 01-21.2 7.3c-4 .7-6.1 1.2-10 .7 4.3.1 5.7-3.9 4.2-5.5 11.2-.7 19.4-5 26-12.7 1.4-1.6 2.6-3.6 3.7-5.7.6-.8 1.3-1 1.9-1zm-96.8 6.6c6.8.1 13.7.6 19.9 1 5.4.2 13.2 1.1 20.8 1.7-.6 1-1.2 1.7-1.6 2-2.7 2.2-4.5 3-6.4 3.5-1.9.5-4 .6-7.6 1-8.3.8-22.2 0-32.4-.7-5.8-.3-12.1 1-17.2 2.1l-6.5 1.6-1.3.3v-.1c-.3-3-1.2-6.2-1.3-9.7 3.6-.7 10.4-2 13.7-2.3 6.1-.5 13-.6 19.9-.4zm63.9.3c2.4.6.4 3.3.3 3.5-.5.7-1.6.6-2.4.8-7 1.6-15.2.1-18.9-.7l.6-1c5.1.2 10 .3 13.6-.4a29 29 0 006.8-2.2zM302 108a47 47 0 0020.7.8l1.7-.5c2.2 1.6.5 3.3-1.7 4.8-7 .2-14.5-1-22.3-3.7l.7-.5 1-1zm57.4 1.7c2 .2 2 3.8.8 6.7-1.7 4-6 7.7-7.6 8.6-1.2.5-1.9 1.5-3 1.9-5.6 2-16.6 3.2-22.6 2.7a53.4 53.4 0 01-16.5-3.5c2.8.3 5.4-.4 6.4-1.4 1.2-1.1.5-2.6.5-2.9 4.7.8 9.3 1 14.4.2 5.8-1 16.7-4 21.9-7.8 1.3-1 3.1-2.7 4.8-4.3l1-.2zm-61.2 1.1c7.9 3 15.6 4.5 23 4.5 2.6.6 1.6 4.6-5.3 4-9-1.9-16.6-5.7-19.6-7.4l2-1zm96.3 1.6c6 5.5-.8 27.4-21.4 35.6a64 64 0 01-13.8 4c-9.3 1.3-25 3.2-33.7.6-3-1-5.2-.9-8.4-2.3 4.5 1.7 8.4 1 13-.2 5-1.3 6-4.4 5.4-7.3 3-.2 7.7-.1 11.4-.6a61.4 61.4 0 0035.9-17.7c2.9-2.7 11.4-12.2 11.6-12zm-100.7.5c1 .7 9 5.4 19.2 8 3.7 2 .6 2.9-3 3-1.6 0-2.7 0-4.2-.5-2.9-1-6.3-3.2-9.5-5.6-2.6-2-4-3.5-5-4.4l2.5-.5zm-40.9.5l5.4.3 6.5 12.7c-1 5.7-4.6 2.4-8.2-.3l-5.3-12.7h1.6zm-3.6 0l5 12.7c-.8 4-2.9 4-5 2.5-1-.6-1.8-1.5-2.7-2.3a5699 5699 0 01-3.7-12.1c2.1-.4 4.2-.7 6.4-.8zm39 .3c.4.3 2.8 2.4 6.4 5 2.7 2 5.6 4 8.3 5.6 1.7 2.8 0 3.4-2.2 3-1.4-.2-2.7-1-4.3-1.4-3.6-3.1-9.1-9.5-11.2-11.9h.5c1 0 1.7-.2 2.6-.3zm-27.6 0l7 .3c.3.6 3.5 6.2 8 13.4.4 4.3-1.8 4.7-8.3-.8l-6.7-12.9zm22.1.5c.7.9 7 8 11.3 12.2 1.2 4.7-4.5 2-5.9 1l-2.4-3c-3.7-4.7-6.2-8.1-7.6-10l4.6-.2zm-12.7 0l5.5.1c.7 1 4 5.5 8.6 11.3l1.6 2c1.3 3.2-2.5 4.6-7.6 0-4.2-6.6-7.3-12-8.1-13.4zm-29.1.3c.2.7 2.5 7 3.6 12 .7 3-3.2 7.2-6.8 1.2l-2.7-12 1.4-.4 4.5-.8zm-7.8 1.6l2.7 12.2c-1.4 5-3.3 5-4.6 4.2-.6-.4-.7-1-1.1-1.5l-1.8-13.6 1.8-.5 3-.8zm73.9 10.5l.3.2a57.2 57.2 0 0019.4 4.9c6.4.5 17.5-.7 23.6-2.9l2.8-1c2.3 6.7-7.7 10.4-16 12.3a47 47 0 01-21.5-2.2 62.3 62.3 0 01-16.2-9c5 2.6 8.7-.7 7.6-2.3zm-10 2.9a57.7 57.7 0 0034.7 13.3c4.5 6-12.3 6.3-21.3 4.4a59 59 0 01-9.4-6.2c-3-2.4-6.8-5.8-10.8-10.4 5.2 2.3 6 .5 6.7-1.1zm-41.4 0l7 16.5c1 5.7-5.1 8-10.3-1.1l-4.6-14.6 1.7 1.1c1.8 1.2 3.6 1.5 6.2-2zm2.4.3c3.4 3 6.6 4.2 8.5.3 3.2 6 5.5 10 9.4 16.8-.7 4.5-2.8 5.1-5.1 4-2-1-4.1-3.3-6-4.8-3-6.8-4.5-10.5-6.8-16.3zm-12.4.4c1.6 5.4 2.5 8 4.5 14.2.9 6.7-4 9-8.4.8l-3.1-13.7c2.7 4.2 7.3 1.8 7-1.3zm23.5.4c6.2 5.8 8 3.8 8.8.8 3.4 5.4 6.7 9.7 11 15l1.1 1.2c2.8 6.2-5.5 5.3-12-.5-3.6-6.6-5.8-10.4-8.9-16.5zm19 .4c4.1 5 8.2 8.9 11.6 11.6 2 1.7 4.5 3.3 7 4.8 1.7 5.3-5.8 4-14 .3l-2.2-2.5c-4-5-7.3-9-10.4-13.9 1.3 1.8 7.5 4.3 8-.3zm-51.4 1.2l3 13.3c-1.3 11.4-5 5.9-7.6 3.2-.5-5.1-.6-8.7-1.2-13.7 3.1 2 4.5.3 5.8-2.8zm5.9 18.7c1.2 1.9 4 3.3 5.8 3 2.3-.5 3.3-3.1 3.2-4 1.7 5.4 2.7 8 4 11.8l4.5 11.8c-1.4 4.6-3.8 7.2-10.8.1l-3-10.1c-1.1-4.2-2.3-6.6-3.7-12.6zm12 .2c1 2 3.7 3.3 6 3 2.3-.4 4-1.7 4-3 2.8 6.4 4.1 9.9 6.2 14.3l4.1 8c-2.2 6.6-6 5.4-11.8.2-1.7-4.4-7-17.4-8.6-22.5zm13.2 1c1.6 3.2 9 6.4 10.3-1.3 3 5.1 5 8.7 7.5 12.2 1.8 2.6 4.7 6 7.4 9.4-1.2 6.2-4.5 8.2-14.9 1l-4.4-8.6c-2-4.2-3.3-6.7-5.9-12.8zm42.2-2.2l5.3 2.4c3.2 1.4 5.7 1.8 8.3 2.6a89 89 0 0041.8-2c1.7 5.2-12.3 20.5-41.3 16-1.8-.9-4.8-1.9-6.4-2.7-6.1-3.2-11.4-7-14.7-10-1.7-1.4-3.2-2.1-5.6-4.5 4.6 2.4 9 2.4 11 1 1.5-1.2 1.2-2.6 1.6-2.8zm-69.7 1.8c1.5 6 5 19.5 6.1 23-2.4 4-7.5 5.3-13-1.2v-4.8c0-5.4-.2-10.2-.8-16.2l1.3 1.1c1.2 1.2 2.5 2.2 3.8 1.7 1.1-.4 1.9-.5 2.6-3.6zm41.3.5c2.3 3 12 5.4 11.3-1.6 2.9 3 5.7 5.4 7.6 7.1 3.5 3 8.5 7 14.8 10.2l2.8 1.3c1.1 5.8-9.3 12-21 3-3-3.7-7-7.7-9-10.5-2.2-3.1-3.8-4.9-6.5-9.5zm-99.5 96.6s-3 9.9-6.3 19.8c-.8 4.8 10.2 9.2 11.9 6l3.4-20a26 26 0 01-2.4-1.1c-4-2.2-6.6-4.7-6.6-4.7zm32 0s-1.4 1.9-4.7 3.7c-1.1.7-2.5 1.4-4 2l3.5 20c1.7 1.3 10.2.3 11.2-5.6 0-.2.2-.2.4-.3-3.4-10-6.4-19.8-6.4-19.8zm-10.9 6.4c-1.9.7-3.7 1-5 1-1.4 0-3-.3-4.9-.8l-3.3 19.7c4.5 4 10.4 4.9 16.6-.1l-3.4-19.8zM174.7 272c-1.6 4.8-3.3 9.4-4.7 12.6-1 2.3-2.5 5.1-4 8.2-2 4.5 11.3 10.7 14.3 6.6l3.5-21.2c-1 .8-8.3-2-9-6.2zm47 0c-2.1 3.3-5.5 5.9-8.9 5.7l3.7 21.7c3.2 3.1 16-3.2 14-6.6-1.6-3-3-6-4-8.2-1.5-3.2-3.2-7.8-4.8-12.6zm-11 6.2c-.7.2-1-.4-2.2-1-3 .9-6.1 3.8-9.3 3.8L199 301c5 2.7 10.2 2.4 15.2-1.3l-3.6-21.6zm-24.5-.1l-3.6 21.8c4 4.6 8.9 4.8 14 1.2l.2-20c-2.9 0-6.6-2.6-8.3-3.6-1.4.4-1.5.7-2.3.6zm-21.8 17.7a509 509 0 00-10.5 20.9c-.5.7 1.4 10 13.5 8.5l5.9-22c-5 .1-10-6.1-9-7.4zm67.6 0c.6 1.4-5.2 6.8-9.7 6.5l6 23.4c14 0 14.7-9 14.4-9.2 0 0-4.8-9.7-10.7-20.7zm-56.4 7.7l-6 22.4c.4 3.5 11 6.8 16.3 3.2l3.2-22.5c-1.9-.2-5.8-1.6-8-4.2-2.8 1.4-5 1.3-5.5 1zm44.6-.6c-.3 0-2.3-.3-4.2-1.3-3 2.4-6.9 3.8-9.2 4l4 23.9c7.1 2.1 11.2-.8 15.3-3.2l-5.9-23.4zm-28.7 3.3l-3.3 23.3c5 4.5 16.3 3.6 20.2.4l-4-24c-2 .2-4.3-1.6-6.4-2.4-2.4 1.4-4.5 2.8-6.5 2.7z" fill="#c8ab37" overflow="visible"/></svg>