<?xml version="1.0" encoding="UTF-8"?>
<svg xmlns="http://www.w3.org/2000/svg" width="460" height="160" viewBox="0 0 23 8">
<g fill="dimgray">
<rect x="0" y="2" width="23" height="6"/>

<rect x="0" y="0" width="1" height="2"/>
<rect x="1" y="1" width="1" height="1"/>
<rect x="2" y="0" width="1" height="2"/>

<rect x="4" y="1" width="1" height="1"/>
<rect x="6" y="1" width="1" height="1"/>
<rect x="8" y="1" width="1" height="1"/>
<rect x="10" y="1" width="1" height="1"/>
<rect x="12" y="1" width="1" height="1"/>
<rect x="14" y="1" width="1" height="1"/>
<rect x="16" y="1" width="1" height="1"/>
<rect x="18" y="1" width="1" height="1"/>

<rect x="20" y="0" width="1" height="2"/>
<rect x="21" y="1" width="1" height="1"/>
<rect x="22" y="0" width="1" height="2"/>
</g>
</svg>
