<svg version="1.0" xmlns="http://www.w3.org/2000/svg" width="428" height="296">
<rect x="0" y="0" width="428" height="296" fill="silver"/>
<path d="M153.5 17.2c-.3.7-.6 42.7-.8 93.3l-.2 92-16.2.3c-9.3.1-16.3-.1-16.3-.7 0-.5 1.1-3.7 2.4-7.2 4-10.6 5.1-23.4 3.3-36.4-5.2-36.2-28-73.7-63.4-104.4-11.9-10.4-10.8-17.6-11.1 71.7L51 203h-9.6c-7.9 0-10.1.3-12.4 2-4.9 3.5-5.1 5.5-4.8 35.1.3 26.9.3 27.5 2.7 31.6 1.4 2.4 4.3 5.5 6.5 7 4 2.6 4.7 2.7 22.1 3.4 9.9.4 61.2.8 114 .8 101 .1 104 0 117-4.4 14-4.8 26.4-13.8 37-27.1 11.3-14 15.9-17.5 36.1-27.8 9.8-5.1 23.3-12 30-15.4 12.6-6.5 14.4-8.2 14.4-14.2 0-6.3-4.5-11-10.5-11-2.2 0-33.6 10.1-48.5 15.6-10.6 3.9-24 5.6-24 3.1 0-.7.4-1.7.9-2.3 1.9-1.9 5-13.7 6.2-23.3 1.3-10.6.3-24.7-2.7-37.6-4.9-21.7-19.8-50.7-37.4-72.7-6.8-8.6-29.4-30.8-31.3-30.8-.8 0-1.8.7-2.1 1.6-.3.9-.6 38.7-.6 84V203h-18c-9.9 0-18-.2-18-.5 0-.2 1.4-3.9 3-8.1 1.7-4.2 3.7-11.1 4.5-15.3 2.9-15.2 1.3-42.1-3.4-56.9-1.2-3.5-2.6-8.2-3.2-10.5-.6-2.3-3.1-8.9-5.5-14.6-11.7-27.2-26.7-49.6-48.1-71.9-8.7-9-10.9-10.5-11.8-8z" stroke="#00f" stroke-width="10"/>
</svg>
