<?xml version="1.0" encoding="UTF-8" standalone="no"?>
<svg
   xmlns:dc="http://purl.org/dc/elements/1.1/"
   xmlns:cc="http://creativecommons.org/ns#"
   xmlns:rdf="http://www.w3.org/1999/02/22-rdf-syntax-ns#"
   xmlns:svg="http://www.w3.org/2000/svg"
   xmlns="http://www.w3.org/2000/svg"
   xmlns:sodipodi="http://sodipodi.sourceforge.net/DTD/sodipodi-0.dtd"
   xmlns:inkscape="http://www.inkscape.org/namespaces/inkscape"
   version="1.0"
   width="2476.000000pt"
   height="801.000000pt"
   viewBox="0 0 2476.000000 801.000000"
   preserveAspectRatio="xMidYMid meet"
   id="svg12"
   sodipodi:docname="map.svg"
   inkscape:label="Tangier patrol"
   inkscape:version="0.92.4 (5da689c313, 2019-01-14)">
  <defs
     id="defs16" />
  <sodipodi:namedview
     pagecolor="#ffffff"
     bordercolor="#666666"
     borderopacity="1"
     objecttolerance="10"
     gridtolerance="10"
     guidetolerance="10"
     inkscape:pageopacity="0"
     inkscape:pageshadow="2"
     inkscape:window-width="1920"
     inkscape:window-height="1179"
     id="namedview14"
     showgrid="false"
     inkscape:zoom="1"
     inkscape:cx="1352.1344"
     inkscape:cy="573.97592"
     inkscape:window-x="1920"
     inkscape:window-y="0"
     inkscape:window-maximized="1"
     inkscape:current-layer="g192" />
  <metadata
     id="metadata2">
Created by potrace 1.15, written by Peter Selinger 2001-2017
<rdf:RDF>
  <cc:Work
     rdf:about="">
    <dc:format>image/svg+xml</dc:format>
    <dc:type
       rdf:resource="http://purl.org/dc/dcmitype/StillImage" />
  </cc:Work>
</rdf:RDF>
</metadata>
  <g
     id="g126"
     inkscape:label="cities"
     style="display:inline">
    <circle
       inkscape:label="Tangier"
       r="92.269775"
       cy="427.11731"
       cx="296.45453"
       id="path63"
       style="opacity:1;fill:#808000;fill-opacity:0.18309859;stroke:#000000;stroke-width:0.76533234;stroke-linecap:round;stroke-linejoin:bevel;stroke-miterlimit:4;stroke-dasharray:none;stroke-dashoffset:0;stroke-opacity:1" />
    <circle
       inkscape:label="Gibraltar"
       r="92.269775"
       cy="216"
       cx="374.25"
       id="path63-3"
       style="opacity:1;fill:#808000;fill-opacity:0.18309859;stroke:#000000;stroke-width:0.76533234;stroke-linecap:round;stroke-linejoin:bevel;stroke-miterlimit:4;stroke-dasharray:none;stroke-dashoffset:0;stroke-opacity:1" />
    <circle
       inkscape:label="Algiers"
       r="92.269775"
       cy="318"
       cx="883.5"
       id="path63-6"
       style="opacity:1;fill:#808000;fill-opacity:0.18309859;stroke:#000000;stroke-width:0.76533234;stroke-linecap:round;stroke-linejoin:bevel;stroke-miterlimit:4;stroke-dasharray:none;stroke-dashoffset:0;stroke-opacity:1" />
    <circle
       inkscape:label="Tunis"
       r="92.269775"
       cy="278.25"
       cx="1232.25"
       id="path63-7"
       style="opacity:1;fill:#808000;fill-opacity:0.18309859;stroke:#000000;stroke-width:0.76533234;stroke-linecap:round;stroke-linejoin:bevel;stroke-miterlimit:4;stroke-dasharray:none;stroke-dashoffset:0;stroke-opacity:1" />
    <circle
       inkscape:label="Malta"
       r="92.269775"
       cy="189.53033"
       cx="1592.4697"
       id="path63-5"
       style="opacity:1;fill:#808000;fill-opacity:0.18309859;stroke:#000000;stroke-width:0.76533234;stroke-linecap:round;stroke-linejoin:bevel;stroke-miterlimit:4;stroke-dasharray:none;stroke-dashoffset:0;stroke-opacity:1" />
    <circle
       inkscape:label="Derne"
       r="92.269775"
       cy="437.25"
       cx="2030.625"
       id="path63-35"
       style="opacity:1;fill:#808000;fill-opacity:0.18309859;stroke:#000000;stroke-width:0.76533234;stroke-linecap:round;stroke-linejoin:bevel;stroke-miterlimit:4;stroke-dasharray:none;stroke-dashoffset:0;stroke-opacity:1" />
    <circle
       inkscape:label="Benghazi"
       r="92.269775"
       cy="583.13031"
       cx="1877.1737"
       id="path63-62"
       style="opacity:1;fill:#808000;fill-opacity:0.18309859;stroke:#000000;stroke-width:0.76533234;stroke-linecap:round;stroke-linejoin:bevel;stroke-miterlimit:4;stroke-dasharray:none;stroke-dashoffset:0;stroke-opacity:1" />
    <circle
       inkscape:label="Alexandria"
       r="92.269775"
       cy="454.69446"
       cx="2335.5737"
       id="path63-9"
       style="opacity:1;fill:#808000;fill-opacity:0.18309859;stroke:#000000;stroke-width:0.76533234;stroke-linecap:round;stroke-linejoin:bevel;stroke-miterlimit:4;stroke-dasharray:none;stroke-dashoffset:0;stroke-opacity:1" />
    <circle
       inkscape:label="Tripoli"
       r="127.9192"
       cy="604.64563"
       cx="1416.0911"
       id="path63-62-1"
       style="display:inline;opacity:1;fill:#808000;fill-opacity:0.18309859;stroke:#000000;stroke-width:1.06102693;stroke-linecap:round;stroke-linejoin:bevel;stroke-miterlimit:4;stroke-dasharray:none;stroke-dashoffset:0;stroke-opacity:1" />
  </g>
  <g
     sodipodi:insensitive="true"
     inkscape:label="patrolx"
     id="g192"
     style="display:inline">
    <path
       style="opacity:1;fill:#000000;fill-opacity:0.18309859;stroke:#000000;stroke-width:1;stroke-linecap:round;stroke-linejoin:bevel;stroke-miterlimit:4;stroke-dasharray:none;stroke-dashoffset:0;stroke-opacity:1"
       d="M 246.42578,368.71094 A 181.33333,181.33333 0 0 0 65.09375,550.04492 181.33333,181.33333 0 0 0 163.18164,710.96289 c 1.46133,0.25561 3.28133,0.86748 5.61914,1.83789 4.8,1.99999 5.99856,1.99948 13.86524,0.13281 4.8,-1.2 13.73332,-2.79961 20,-3.59961 6.26665,-0.93333 16.39987,-3.46769 22.5332,-5.73437 9.73332,-3.73332 12.4013,-5.46629 20.66797,-13.59961 C 251.0672,684.8 259.2,678.39909 264,675.73242 c 6,-3.33333 11.86602,-8.4 18.66602,-16 4.42254,-4.96188 10.47566,-11.28276 14.96679,-15.64844 A 123.02637,123.02637 0 0 1 272.24609,569.49023 123.02637,123.02637 0 0 1 395.01367,446.47656 181.33333,181.33333 0 0 0 246.42578,368.71094 Z"
       transform="scale(0.75000001)"
       id="circle182"
       inkscape:connector-curvature="0"
       inkscape:label="Tangier sea" />
    <path
       style="display:inline;opacity:1;fill:#000000;fill-opacity:0.18309859;stroke:#000000;stroke-width:1.36761272;stroke-linecap:round;stroke-linejoin:bevel;stroke-miterlimit:4;stroke-dasharray:none;stroke-dashoffset:0;stroke-opacity:1"
       d="m 820.93945,28.197266 c -3.24405,0.206752 -3.2094,0.644339 -1.60547,1.802734 5.2,3.733333 5.60013,4.534245 5.4668,10.267578 -0.26667,6.533333 -1.60105,9.465625 -3.73437,8.265625 -0.8,-0.533333 -2.66563,-0.933073 -4.26563,-1.066406 -2.26667,-0.133333 -2.79987,-0.933853 -2.5332,-3.867188 0.26666,-3.2 -10e-4,-3.599479 -1.73438,-2.132812 -2.26666,1.866667 -1.19896,10.000259 1.73438,12.933594 2.13333,2.266665 2.13242,2.265493 -0.26758,6.798828 -1.06669,2.266665 -1.59922,5.60039 -1.19922,8.40039 0.66668,3.866668 0.3987,4.666146 -2.66797,6.132813 -3.73333,1.733333 -7.20013,7.600652 -5.46679,9.333984 0.53333,0.533335 1.33489,0.134505 1.60156,-0.798828 0.4,-0.8 1.46653,-1.601562 2.5332,-1.601562 2.53333,0 2.5319,8.534635 -0.13476,10.667968 -2.53334,2.133334 -2.53191,4 0.13476,6 1.86668,1.199996 1.86602,2.131776 0.66602,4.398436 -1.86667,3.6 -0.80052,5.73464 2.13281,4.66797 1.86667,-0.66667 2.00117,-0.13424 1.20117,3.73242 -0.66667,2.53334 -1.06836,5.06719 -1.06836,5.86719 0,2.4 2.66824,17.19948 3.60156,20.13281 0.66668,2.4 0.13321,3.06706 -3.46679,4.40039 -2.26667,0.8 -5.60065,1.4668 -7.33399,1.4668 -1.6,0 -4.66743,1.73333 -6.80078,4 -4.26665,4.53333 -6.39961,5.06576 -7.59961,1.73242 -0.8,-1.86666 -1.06691,-1.86535 -2.93359,0.66797 -1.06667,1.6 -3.19987,2.93359 -4.5332,2.93359 -2.13334,0 -2.39856,0.66524 -1.86524,3.86524 0.4,2.13332 0.13203,5.06797 -0.66797,6.66797 -1.33333,2.4 -1.99896,2.53203 -4.26562,1.33203 -3.2,-1.6 -3.33426,-1.46628 -6.26758,4.40039 -2.13333,4.13333 -2.66706,4.39948 -8.40039,4.13281 L 754.93359,173.59961 754,184.40039 c -0.53333,6 -1.46758,11.7332 -2.26758,12.5332 -0.8,0.93335 -2.5319,6.00064 -3.86523,11.33399 -1.33335,5.2 -3.33374,10.39961 -4.40039,11.59961 -1.46668,1.73333 -1.60078,4.26614 -0.80078,12.13281 0.8,7.46667 0.5345,10.93385 -0.79883,13.86719 -1.06667,2.13333 -1.86719,4.93372 -1.86719,6.40039 0,1.33333 -1.46732,3.2 -3.33398,4 -3.6,1.6 -3.59857,1.3323 -3.86524,18.26562 -0.13333,12.4 -1.8668,15.06758 -5.4668,8.26758 -1.06665,-2.26667 -2.93476,-4.13476 -4.13476,-4.13476 -1.06667,0 -2.53255,-1.33308 -3.19922,-3.06641 -1.6,-3.73333 -5.99909,-8.93359 -7.73242,-8.93359 -0.66667,0 -2.00025,0.93476 -2.9336,2.13476 -1.06665,1.06667 -3.33346,1.86628 -5.46679,1.59961 -2.13335,-0.13333 -4.80039,0.66616 -6.40039,2.13281 -1.46668,1.33335 -3.33282,2.00013 -4.13282,1.4668 -0.8,-0.53332 -2.26782,-0.2668 -3.20117,0.5332 -0.93332,0.8 -2.8,1.19935 -4,0.66602 -1.33332,-0.53333 -2.40026,6.6e-4 -2.93359,1.33398 -1.06667,2.66666 -5.33177,2.79947 -6.39844,0.13282 -0.4,-1.06667 -2.13333,-2 -4,-2 -1.86667,0 -3.73424,-0.6668 -4.26758,-1.4668 -0.53333,-0.93333 -2.1332,-0.1319 -4.5332,2.13476 -2.8,2.66667 -4.39922,3.33321 -7.19922,2.53321 -3.06667,-0.66668 -3.60078,-1.33477 -2.80078,-4.13477 0.53332,-2.13333 0.26733,-2.93177 -0.66602,-2.39844 -0.66665,0.4 -1.33398,2.13191 -1.33398,3.86524 0,3.2 -4.53255,6.13476 -9.19922,6.13476 -1.33333,0 -3.20143,0.93334 -4.13476,2 -0.93334,1.06667 -2.79896,2 -4.26563,2 -1.46667,0 -3.46655,0.93334 -4.5332,2 -2.03051,1.9177 -3.89572,1.6035 -7.9668,-1.83789 0.0502,0.83419 0.0918,1.66887 0.125,2.50391 C 622.02593,355.94558 566.94558,411.0268 499,411.02734 431.05365,411.02788 375.97212,355.94635 375.97266,288 c 0.0206,-14.78143 2.70472,-29.43818 7.92382,-43.26758 -5.71216,-0.98876 -9.23046,-2.29196 -9.23046,-3.66601 0,-0.66667 -1.59909,-0.93374 -3.73243,-0.40039 -4.66666,0.93332 -5.46627,1.3e-4 -11.59961,-12.53321 -2.53333,-5.2 -5.33476,-9.46679 -6.13476,-9.46679 -0.80004,0 -1.19831,0.40026 -0.93164,0.93359 2.8,5.46667 4.79961,11.33333 5.59961,16 0.66665,4.66667 0.26575,6.13449 -2.26758,9.20117 -3.2,3.73332 -15.86654,7.99896 -18.5332,6.26563 -0.8,-0.4 -3.59948,-0.79935 -6.13282,-0.66602 -2.43032,0.10125 -4.55289,-0.41611 -6.60156,-1.66211 C 347.97283,382.48065 464.18428,479.97207 600,480 754.63973,480 880,354.63973 880,200 879.95499,137.75993 859.1738,77.308998 820.93945,28.197266 Z"
       transform="scale(0.75000001)"
       id="circle184"
       inkscape:connector-curvature="0"
       sodipodi:nodetypes="cccccccccccccscccccsccscccsccccccccccccscccscsccccccscscccccsssscccsccsccsccccccccc"
       inkscape:label="Gibraltar sea" />
    <path
       style="opacity:1;fill:#000000;fill-opacity:0.18309859;stroke:#000000;stroke-width:1;stroke-linecap:round;stroke-linejoin:bevel;stroke-miterlimit:4;stroke-dasharray:none;stroke-dashoffset:0;stroke-opacity:1"
       d="m 1172,151.33398 a 181.33333,181.33333 0 0 0 -181.33398,181.33204 181.33333,181.33333 0 0 0 12.60158,66.32812 c 0.024,0.0238 0.043,0.0485 0.066,0.0723 2.8,2.66666 4.7995,3.33398 10.1328,3.33398 8.4,0.13332 13.7333,1.06577 20,3.73242 4.2667,1.86667 5.3327,1.8681 8.666,0.13477 2.1333,-1.06667 5.5996,-3.60156 7.5996,-5.60156 2.97,-2.97004 4.1427,-3.51225 8.2344,-2.9375 A 123.02637,123.02637 0 0 1 1178,300.97266 a 123.02637,123.02637 0 0 1 111.9043,72.20117 c 0.6147,-0.29368 1.146,-0.50781 1.4297,-0.50781 1.3333,0 2.3987,-2.1336 7.332,-12.9336 1.6,-3.6 3.4676,-6.79922 4.2676,-7.19922 3.4667,-2.13332 26.4006,-3.20065 29.334,-1.33398 1.7333,1.06668 3.0655,1.06719 4.7988,-0.13281 1.4667,-0.79983 5.0665,-1.19883 8.5332,-0.79883 3.9822,0.48562 5.5587,0.46957 6.8945,-0.8086 A 181.33333,181.33333 0 0 0 1353.334,332.66602 181.33333,181.33333 0 0 0 1172,151.33398 Z"
       transform="scale(0.75000001)"
       id="circle186"
       inkscape:connector-curvature="0"
       inkscape:label="Algiers sea" />
    <path
       style="opacity:1;fill:#000000;fill-opacity:0.18309859;stroke:#000000;stroke-width:0.98842627;stroke-linecap:round;stroke-linejoin:bevel;stroke-miterlimit:4;stroke-dasharray:none;stroke-dashoffset:0;stroke-opacity:1"
       d="M 1700.666,114.66602 A 181.33333,181.33333 0 0 0 1519.334,296 181.33333,181.33333 0 0 0 1524.5527,338.31836 123.02637,123.02637 0 0 1 1643,247.97266 123.02637,123.02637 0 0 1 1766.0273,371 123.02637,123.02637 0 0 1 1704.8828,477.18359 181.33333,181.33333 0 0 0 1882,296 181.33333,181.33333 0 0 0 1700.666,114.66602 Z"
       transform="scale(0.75000001)"
       id="circle188"
       inkscape:connector-curvature="0"
       inkscape:label="Tunis sea" />
    <path
       style="opacity:1;fill:#000000;fill-opacity:0.18309859;stroke:#000000;stroke-width:0.99350274;stroke-linecap:round;stroke-linejoin:bevel;stroke-miterlimit:4;stroke-dasharray:none;stroke-dashoffset:0;stroke-opacity:1"
       d="M 2018.8281,412.58594 A 324,324 0 0 0 1709.209,641.18945 c 0.5878,1.08836 0.6153,2.62986 0.3906,5.47657 -0.1333,3.2 0.6672,10.26822 1.8672,15.60156 1.8667,7.86666 1.9993,10.26587 0.666,13.19922 -1.7333,4 -0.9332,5.86679 1.4668,3.46679 2.5333,-2.53333 3.3337,-2.00091 8.4004,5.73243 2.8,4 5.4676,7.33398 6.2676,7.33398 0.6666,0 2.9331,1.86758 5.0664,4.26758 3.0667,3.33333 4.2657,3.86601 5.7324,2.66601 1.4667,-1.33333 2.6673,-1.06692 5.334,1.06641 1.8667,1.46667 4.3996,2.66602 5.5996,2.66602 0.5007,0 1.3106,0.26614 2.2402,0.68945 a 170.55893,170.55893 0 0 1 135.8809,-67.7207 170.55893,170.55893 0 0 1 159.5625,110.89843 c 0.9933,-0.47312 1.6504,-0.51114 1.6504,0 0,0.8 0.7991,1.4668 1.7324,1.4668 0.8,0 3.0669,1.19935 4.9336,2.66602 2,1.6 5.4665,2.66796 8.5332,2.66796 5.6,0 10.1328,2.93269 10.1328,6.66602 0,1.33333 -1.4653,4.53398 -3.332,7.33398 l -3.4668,4.9336 2.7988,5.86523 c 1.6,3.2 4.1344,6.13465 5.7344,6.66797 4.6667,1.33333 7.5996,4.66512 7.5996,8.39844 0.1333,1.86668 0.9333,4.93411 2,6.80078 2.6667,4.66667 2.4007,8.53398 -0.666,11.33398 -1.4667,1.33335 -2.668,3.86628 -2.668,5.59961 0,3.73335 4.2673,12.53308 7.334,15.06641 4,3.33333 6.0008,9.06654 6.8008,20.5332 0.6666,7.73334 1.5983,11.99973 2.9316,13.06641 1.7335,1.46667 1.8669,1.06772 0.9336,-4.26563 -0.5333,-3.33332 -1.0653,-9.86796 -1.332,-14.66796 -0.4,-10.13334 -2.2672,-17.59961 -5.8672,-23.59961 -2.2667,-3.6 -2.4008,-4.53269 -0.8008,-6.66602 1.7333,-2.26667 1.8679,-2.26784 5.2012,0.79883 1.8667,1.73333 4.1325,6.00117 5.1992,9.20117 1.2,4.4 2.7996,6.66563 5.5996,8.26563 3.7333,2.13333 4.0014,2.80078 4.1348,10.80078 0.1333,11.33333 0.1325,11.59922 3.1992,13.19922 2,1.06666 6.5336,0.93346 16.9336,-0.53321 15.2,-2.13333 17.1999,-1.73281 22.5332,3.86719 2.4,2.53333 4.1333,3.06641 12,3.06641 5.2,0 10.8008,-0.80051 12.8008,-1.86719 3.0666,-1.6 3.8663,-1.59909 5.5996,0.26758 1.2,1.06665 2.1328,3.06705 2.1328,4.40039 0,3.2 -2.2668,14.8 -3.4668,18 -0.8,2.13333 -0.5331,2.39909 2.9336,1.73242 10,-2 12.2669,-2.79988 16.9336,-6.5332 5.6,-4.4 8.9336,-4.13256 8.9336,0.80078 0,4.93333 3.8667,8.39896 14,12.26562 9.7333,3.6 11.8669,3.99987 18.9336,2.53321 4,-0.93334 4.5317,-0.53321 8.3984,5.46679 2.1333,3.46667 4,7.20143 4,8.13477 0,0.93333 0.6673,1.73242 1.334,1.73242 0.8,0 1.334,-1.33306 1.334,-3.06641 0,-1.6 1.7333,-5.60026 4,-8.93359 3.4667,-5.2 3.7333,-6.13333 2,-8 -1.0667,-1.2 -2,-2.80013 -2,-3.4668 0,-2.26666 7.3319,-8.5332 9.8652,-8.5332 1.2,0 4.0015,-1.86615 6.1348,-4.13281 3.3333,-3.73334 4.266,-4.13399 8.666,-3.33399 4,0.8 5.1996,1.86746 7.5996,6.80078 1.6,3.2 3.7341,6.26602 4.8008,6.66602 1.2001,0.4616 2.5572,0.23997 3.8223,-0.41406 a 324,324 0 0 0 9.1796,-18.99805 c -1.1806,-1.43759 -2.0683,-2.84931 -2.0683,-3.38867 0,-1.01468 2.9565,-3.82261 6.0176,-6.19141 a 324,324 0 0 0 23.4765,-120.42187 324,324 0 0 0 -324,-324 z"
       transform="scale(0.75000001)"
       id="circle190"
       inkscape:connector-curvature="0"
       inkscape:label="Tripoli sea" />
  </g>
</svg>
