<?xml version="1.0" encoding="UTF-8" standalone="no"?>
<svg
   xmlns:dc="http://purl.org/dc/elements/1.1/"
   xmlns:cc="http://creativecommons.org/ns#"
   xmlns:rdf="http://www.w3.org/1999/02/22-rdf-syntax-ns#"
   xmlns:svg="http://www.w3.org/2000/svg"
   xmlns="http://www.w3.org/2000/svg"
   xmlns:xlink="http://www.w3.org/1999/xlink"
   xmlns:sodipodi="http://sodipodi.sourceforge.net/DTD/sodipodi-0.dtd"
   xmlns:inkscape="http://www.inkscape.org/namespaces/inkscape"
   version="1.0"
   width="2476.000000pt"
   height="801.000000pt"
   viewBox="0 0 2476.000000 801.000000"
   preserveAspectRatio="xMidYMid meet"
   id="svg12"
   sodipodi:docname="map-markers.svg"
   inkscape:label="Tangier patrol"
   inkscape:version="0.92.4 (5da689c313, 2019-01-14)">
  <defs
     id="defs16" />
  <sodipodi:namedview
     pagecolor="#ffffff"
     bordercolor="#666666"
     borderopacity="1"
     objecttolerance="10"
     gridtolerance="10"
     guidetolerance="10"
     inkscape:pageopacity="0"
     inkscape:pageshadow="2"
     inkscape:window-width="1920"
     inkscape:window-height="1179"
     id="namedview14"
     showgrid="false"
     inkscape:zoom="4"
     inkscape:cx="1438.9156"
     inkscape:cy="100.8887"
     inkscape:window-x="1920"
     inkscape:window-y="0"
     inkscape:window-maximized="1"
     inkscape:current-layer="svg12" />
  <metadata
     id="metadata2">
Created by potrace 1.15, written by Peter Selinger 2001-2017
<rdf:RDF>
  <cc:Work
     rdf:about="">
    <dc:format>image/svg+xml</dc:format>
    <dc:type
       rdf:resource="http://purl.org/dc/dcmitype/StillImage" />
  </cc:Work>
</rdf:RDF>
</metadata>
  <image
     sodipodi:absref="/home/tor/src/rally/tools/tripoli/map.jpg"
     xlink:href="map.jpg"
     style="display:inline"
     x="0"
     y="0"
     width="2476"
     height="801"
     id="image4"
     sodipodi:insensitive="true" />
  <g
     transform="matrix(0.1,0,0,-0.1,0,801)"
     id="g10"
     style="display:none;fill:#000000;fill-opacity:0.5;stroke:none"
     sodipodi:insensitive="true">
    <path
       d="m 1533,7807 c 6,-161 11,-219 28,-278 11,-41 24,-112 28,-159 5,-64 14,-98 35,-137 23,-43 29,-73 39,-176 10,-113 9,-129 -7,-172 -22,-57 -80,-118 -130,-136 -24,-9 -35,-18 -31,-27 16,-42 30,-221 30,-387 v -190 l 90,-44 c 59,-29 107,-46 140,-49 64,-5 115,-35 115,-68 0,-32 29,-32 59,0 13,13 38,27 56,30 19,4 53,15 77,25 24,10 65,22 92,26 48,6 52,9 115,80 10,11 26,32 36,47 17,27 17,27 38,8 11,-11 26,-20 33,-20 7,0 26,-11 42,-25 20,-17 40,-24 64,-23 19,1 40,-2 46,-5 20,-13 115,19 139,47 19,23 22,34 17,69 -6,35 -21,79 -42,120 -2,4 1,7 7,7 6,0 27,-32 46,-71 46,-94 52,-101 87,-94 16,4 28,2 28,-3 0,-15 55,-29 137,-36 82,-7 104,-14 101,-30 -2,-6 6,-23 17,-37 18,-23 31,-27 110,-34 50,-5 140,-8 201,-7 93,2 135,-3 255,-29 123,-27 175,-33 354,-40 266,-11 455,-24 478,-34 11,-4 17,-3 17,5 0,9 6,8 23,-2 12,-8 43,-22 68,-30 25,-9 59,-28 75,-43 44,-41 60,-47 78,-30 8,8 23,15 34,15 11,0 25,7 32,15 7,8 21,15 31,15 35,0 69,22 69,46 0,13 5,26 10,29 7,4 9,-2 5,-18 -6,-21 -2,-26 21,-31 21,-6 33,-1 54,19 18,17 30,23 34,16 4,-6 18,-11 32,-11 14,0 27,-7 30,-15 8,-20 40,-19 48,1 4,10 12,14 22,10 9,-4 23,-1 30,5 7,6 18,8 24,4 6,-4 20,1 31,11 12,11 32,17 48,16 16,-2 33,4 41,12 7,9 17,16 22,16 13,0 46,-39 58,-67 5,-13 16,-23 24,-23 9,0 23,-14 31,-31 27,-51 40,-31 41,62 2,127 2,125 29,137 14,6 25,20 25,30 0,11 6,32 14,48 10,22 12,48 6,104 -6,59 -5,78 6,91 8,9 23,48 33,87 10,40 23,78 29,85 6,6 13,49 17,94 l 7,81 47,-1 c 43,-2 47,0 63,31 22,44 23,45 47,33 17,-9 22,-8 32,10 6,12 8,34 5,50 -4,24 -2,29 14,29 10,0 26,10 34,22 14,19 16,19 22,5 9,-25 25,-21 57,13 16,17 39,30 51,30 13,0 38,5 55,11 27,10 31,15 26,33 -7,22 -27,133 -27,151 0,6 3,25 8,44 6,29 5,33 -9,28 -22,-8 -30,8 -16,35 9,17 9,24 -5,33 -20,15 -20,29 -1,45 20,16 20,80 1,80 -8,0 -16,-6 -19,-12 -2,-7 -8,-10 -12,-6 -13,13 13,57 41,70 23,11 25,17 20,46 -3,21 1,46 9,63 18,34 18,34 2,51 -22,22 -30,83 -13,97 13,11 15,8 13,-16 -2,-22 2,-28 19,-29 12,-1 26,-4 32,-8 16,-9 26,13 28,62 1,43 -2,49 -41,77 -18,13 -11,14 68,15 h 87 v 105 105 H 3913 1527 Z"
       id="path6"
       inkscape:connector-curvature="0" />
    <path
       d="m 10552,5525 c -90,-46 -135,-125 -131,-231 1,-35 0,-66 -3,-69 -3,-3 -22,17 -43,45 -20,27 -43,50 -50,50 -8,0 -31,-20 -52,-45 -41,-50 -63,-57 -63,-22 0,13 -5,28 -11,34 -8,8 -9,20 -1,42 11,31 -1,101 -17,101 -5,0 -16,-12 -26,-26 -15,-24 -22,-26 -63,-21 -26,3 -53,0 -64,-6 -13,-9 -23,-9 -36,-1 -22,14 -194,6 -220,-10 -6,-3 -20,-27 -32,-54 -37,-81 -45,-97 -55,-97 -6,0 -24,-10 -42,-23 -46,-33 -97,-52 -138,-52 -22,0 -66,-15 -108,-36 -40,-20 -101,-42 -137,-49 -36,-7 -90,-24 -120,-38 -32,-15 -91,-31 -140,-37 -47,-6 -114,-16 -150,-22 -36,-5 -199,-12 -364,-15 l -298,-4 -52,24 c -62,30 -137,54 -194,63 -37,6 -45,3 -69,-21 -15,-15 -41,-34 -57,-42 -25,-13 -33,-13 -65,1 -47,20 -87,27 -150,28 -40,0 -55,5 -76,25 -14,14 -25,30 -25,34 0,25 -32,4 -50,-33 -12,-24 -30,-59 -40,-78 -11,-19 -20,-46 -20,-60 0,-38 -27,-70 -58,-70 -40,0 -68,-24 -88,-75 l -17,-45 h -66 c -62,0 -69,2 -89,29 -69,94 -251,107 -372,27 -32,-21 -110,-122 -122,-156 -2,-6 -57,-22 -123,-35 -97,-19 -148,-36 -263,-89 -79,-36 -159,-76 -177,-90 -45,-35 -85,-118 -85,-177 0,-58 1,-57 -225,-162 -164,-75 -192,-83 -417,-118 -61,-9 -81,-9 -92,0 -12,10 -21,8 -46,-10 -31,-24 -107,-38 -235,-44 -33,-2 -80,-6 -105,-9 -33,-4 -52,-2 -65,9 -27,20 -52,19 -82,-5 -48,-37 -264,-22 -321,23 -7,5 -33,7 -62,3 -32,-4 -56,-2 -68,5 -15,10 -28,9 -59,-4 -29,-11 -63,-14 -134,-11 -51,2 -106,4 -121,5 -20,0 -44,-16 -85,-55 -70,-66 -159,-131 -209,-152 -25,-10 -65,-15 -123,-14 -47,1 -135,-1 -196,-5 l -110,-8 -185,-84 c -102,-46 -210,-90 -240,-98 -30,-8 -84,-22 -120,-31 -136,-34 -194,-62 -256,-122 -33,-31 -87,-82 -120,-112 -33,-30 -93,-92 -134,-138 -51,-57 -95,-95 -140,-120 -36,-20 -97,-68 -136,-107 -62,-61 -82,-74 -155,-102 -46,-17 -122,-36 -169,-43 -47,-6 -114,-18 -150,-27 -59,-14 -68,-14 -104,1 -53,22 -71,20 -84,-9 -11,-23 -16,-25 -49,-19 -21,4 -45,13 -54,20 -20,18 -34,18 -64,-2 -14,-9 -33,-13 -44,-9 -11,3 -35,-1 -53,-9 -18,-8 -102,-38 -186,-66 -85,-27 -166,-56 -180,-64 -19,-9 -95,-15 -252,-20 -124,-4 -242,-11 -262,-17 L 0,2459 V 1230 0 h 8800 8800 v 615 c 0,591 -1,615 -18,615 -21,0 -52,30 -52,50 0,8 11,26 25,40 24,25 25,30 19,103 l -7,77 -56,55 c -31,30 -62,55 -69,55 -17,0 -92,-60 -92,-74 0,-5 10,-20 22,-33 17,-19 19,-23 5,-23 -25,0 -47,-29 -47,-60 0,-33 -36,-65 -62,-55 -8,3 -24,26 -36,50 -18,37 -27,45 -57,51 -33,6 -40,3 -65,-25 -16,-17 -37,-31 -46,-31 -19,0 -74,-47 -74,-64 0,-5 7,-17 15,-26 13,-14 11,-21 -15,-60 -17,-25 -30,-55 -30,-67 0,-13 -4,-23 -10,-23 -5,0 -10,6 -10,13 0,7 -14,35 -30,61 -29,45 -33,48 -63,41 -53,-11 -69,-8 -142,19 -76,29 -105,55 -105,92 0,37 -25,39 -67,6 -35,-28 -52,-34 -127,-49 -26,-5 -28,-3 -22,13 9,24 26,111 26,135 0,10 -7,25 -16,33 -13,14 -19,14 -42,2 -15,-8 -57,-14 -96,-14 -59,0 -72,4 -90,23 -40,42 -55,45 -169,29 -78,-11 -112,-12 -127,-4 -23,12 -23,14 -24,99 -1,60 -3,65 -31,81 -21,12 -33,29 -42,62 -8,24 -25,56 -39,69 -25,23 -26,23 -39,6 -12,-16 -11,-23 6,-50 27,-45 41,-101 44,-177 2,-36 6,-85 10,-110 7,-40 6,-43 -7,-32 -10,8 -17,40 -22,98 -6,86 -21,129 -51,154 -23,19 -55,85 -55,113 0,13 9,32 20,42 23,21 25,50 5,85 -8,14 -14,37 -15,51 0,28 -22,53 -57,63 -12,4 -31,26 -43,50 l -21,44 26,37 c 14,21 25,45 25,55 0,28 -34,50 -76,50 -23,0 -49,8 -64,20 -14,11 -31,20 -37,20 -7,0 -13,5 -13,11 0,6 -12,2 -27,-9 -48,-33 -100,-45 -167,-37 -33,4 -89,6 -122,6 -34,-1 -120,10 -190,23 -148,28 -233,40 -429,61 -86,10 -176,27 -235,45 -95,28 -159,40 -340,61 -135,15 -240,43 -297,78 -49,30 -54,31 -170,31 -128,0 -169,9 -220,46 -17,13 -39,24 -48,24 -9,0 -28,9 -42,20 -20,16 -29,18 -40,8 -11,-9 -20,-5 -43,20 -16,18 -33,32 -38,32 -6,0 -26,25 -47,55 -38,58 -44,62 -63,43 -18,-18 -24,-4 -11,26 10,22 9,40 -5,99 -9,40 -15,93 -14,117 3,38 0,45 -22,57 -17,8 -27,23 -30,45 -5,34 -36,51 -50,28 -4,-7 -29,-14 -56,-16 -27,-1 -39,-1 -26,2 34,8 37,28 8,57 -14,15 -26,30 -26,36 0,5 -24,9 -52,8 -50,-2 -53,-4 -56,-30 -2,-16 2,-35 9,-43 9,-12 7,-14 -15,-14 -15,0 -28,-6 -30,-12 -15,-50 -19,-54 -25,-24 -5,27 -10,30 -48,32 -34,2 -48,-3 -70,-25 -15,-14 -63,-44 -105,-66 l -78,-39 -29,28 c -16,16 -40,34 -53,40 -13,6 -29,25 -36,41 -17,38 -21,46 -54,92 -25,35 -27,43 -19,90 9,59 59,127 101,136 71,15 130,48 130,73 0,7 9,16 20,19 11,4 28,19 37,33 23,36 72,101 100,133 l 23,25 -30,60 c -53,102 -52,229 2,307 19,27 19,29 3,64 -10,20 -20,53 -23,75 -4,31 -14,47 -52,79 -45,38 -90,105 -105,159 -4,14 -19,41 -34,60 -52,65 -78,115 -101,188 -28,89 -34,95 -288,265 -198,132 -270,197 -303,272 -11,25 -22,45 -25,45 -24,0 -107,-36 -111,-49 -3,-9 -13,-24 -21,-33 -14,-16 -16,-16 -40,2 -30,24 -40,25 -63,4 -17,-15 -19,-14 -33,21 -19,44 -34,42 -61,-10 -25,-49 -96,-89 -141,-80 -29,5 -32,9 -37,51 -7,63 -53,132 -111,169 -40,24 -62,30 -120,33 -61,3 -78,0 -124,-23 z"
       id="path8"
       inkscape:connector-curvature="0" />
  </g>
  <g
     id="g61"
     inkscape:label="patrol"
     sodipodi:insensitive="true"
     style="display:none">
    <circle
       inkscape:label="Tangier patrol"
       r="136"
       cy="412.53323"
       cx="184.82004"
       id="path18"
       style="opacity:1;fill:#000000;fill-opacity:0.18309859;stroke:#000000;stroke-width:0.75;stroke-linecap:round;stroke-linejoin:bevel;stroke-miterlimit:4;stroke-dasharray:none;stroke-dashoffset:0;stroke-opacity:1" />
    <circle
       inkscape:label="Gibraltar patrol"
       r="210"
       cy="150"
       cx="450"
       id="path22"
       style="opacity:1;fill:#000000;fill-opacity:0.18309859;stroke:#000000;stroke-width:1.02570951;stroke-linecap:round;stroke-linejoin:bevel;stroke-miterlimit:4;stroke-dasharray:none;stroke-dashoffset:0;stroke-opacity:1" />
    <circle
       inkscape:label="Algiers patrol"
       r="136"
       cy="249.5"
       cx="879"
       id="path24"
       style="opacity:1;fill:#000000;fill-opacity:0.18309859;stroke:#000000;stroke-width:0.75;stroke-linecap:round;stroke-linejoin:bevel;stroke-miterlimit:4;stroke-dasharray:none;stroke-dashoffset:0;stroke-opacity:1" />
    <circle
       inkscape:label="Tunis patrol"
       r="136"
       cy="222"
       cx="1275.5"
       id="path26"
       style="opacity:1;fill:#000000;fill-opacity:0.18309859;stroke:#000000;stroke-width:0.74131972;stroke-linecap:round;stroke-linejoin:bevel;stroke-miterlimit:4;stroke-dasharray:none;stroke-dashoffset:0;stroke-opacity:1" />
    <circle
       inkscape:label="Tripoli patrol"
       r="243"
       cy="552.43933"
       cx="1514.1212"
       id="path28"
       style="opacity:1;fill:#000000;fill-opacity:0.18309859;stroke:#000000;stroke-width:0.74512708;stroke-linecap:round;stroke-linejoin:bevel;stroke-miterlimit:4;stroke-dasharray:none;stroke-dashoffset:0;stroke-opacity:1" />
  </g>
  <g
     id="g126"
     inkscape:label="cities"
     style="display:none">
    <circle
       inkscape:label="Tangier"
       r="92.269775"
       cy="427.11731"
       cx="296.45453"
       id="path63"
       style="opacity:1;fill:#808000;fill-opacity:0.18309859;stroke:#000000;stroke-width:0.76533234;stroke-linecap:round;stroke-linejoin:bevel;stroke-miterlimit:4;stroke-dasharray:none;stroke-dashoffset:0;stroke-opacity:1" />
    <circle
       inkscape:label="Gibraltar"
       r="92.269775"
       cy="216"
       cx="374.25"
       id="path63-3"
       style="opacity:1;fill:#808000;fill-opacity:0.18309859;stroke:#000000;stroke-width:0.76533234;stroke-linecap:round;stroke-linejoin:bevel;stroke-miterlimit:4;stroke-dasharray:none;stroke-dashoffset:0;stroke-opacity:1" />
    <circle
       inkscape:label="Algiers"
       r="92.269775"
       cy="318"
       cx="883.5"
       id="path63-6"
       style="opacity:1;fill:#808000;fill-opacity:0.18309859;stroke:#000000;stroke-width:0.76533234;stroke-linecap:round;stroke-linejoin:bevel;stroke-miterlimit:4;stroke-dasharray:none;stroke-dashoffset:0;stroke-opacity:1" />
    <circle
       inkscape:label="Tunis"
       r="92.269775"
       cy="278.25"
       cx="1232.25"
       id="path63-7"
       style="opacity:1;fill:#808000;fill-opacity:0.18309859;stroke:#000000;stroke-width:0.76533234;stroke-linecap:round;stroke-linejoin:bevel;stroke-miterlimit:4;stroke-dasharray:none;stroke-dashoffset:0;stroke-opacity:1" />
    <circle
       inkscape:label="Malta"
       r="92.269775"
       cy="189.53033"
       cx="1592.4697"
       id="path63-5"
       style="opacity:1;fill:#808000;fill-opacity:0.18309859;stroke:#000000;stroke-width:0.76533234;stroke-linecap:round;stroke-linejoin:bevel;stroke-miterlimit:4;stroke-dasharray:none;stroke-dashoffset:0;stroke-opacity:1" />
    <circle
       inkscape:label="Derne"
       r="92.269775"
       cy="437.25"
       cx="2030.625"
       id="path63-35"
       style="opacity:1;fill:#808000;fill-opacity:0.18309859;stroke:#000000;stroke-width:0.76533234;stroke-linecap:round;stroke-linejoin:bevel;stroke-miterlimit:4;stroke-dasharray:none;stroke-dashoffset:0;stroke-opacity:1" />
    <circle
       inkscape:label="Benghazi"
       r="92.269775"
       cy="583.13031"
       cx="1877.1737"
       id="path63-62"
       style="opacity:1;fill:#808000;fill-opacity:0.18309859;stroke:#000000;stroke-width:0.76533234;stroke-linecap:round;stroke-linejoin:bevel;stroke-miterlimit:4;stroke-dasharray:none;stroke-dashoffset:0;stroke-opacity:1" />
    <circle
       inkscape:label="Alexandria"
       r="92.269775"
       cy="454.69446"
       cx="2335.5737"
       id="path63-9"
       style="opacity:1;fill:#808000;fill-opacity:0.18309859;stroke:#000000;stroke-width:0.76533234;stroke-linecap:round;stroke-linejoin:bevel;stroke-miterlimit:4;stroke-dasharray:none;stroke-dashoffset:0;stroke-opacity:1" />
    <circle
       inkscape:label="Tripoli"
       r="127.9192"
       cy="604.64563"
       cx="1416.0911"
       id="path63-62-1"
       style="display:inline;opacity:1;fill:#808000;fill-opacity:0.18309859;stroke:#000000;stroke-width:1.06102693;stroke-linecap:round;stroke-linejoin:bevel;stroke-miterlimit:4;stroke-dasharray:none;stroke-dashoffset:0;stroke-opacity:1" />
  </g>
  <g
     sodipodi:insensitive="true"
     inkscape:label="patrolx"
     id="g192"
     style="display:none">
    <path
       style="opacity:1;fill:#000000;fill-opacity:0.18309859;stroke:#000000;stroke-width:0.75;stroke-linecap:round;stroke-linejoin:bevel;stroke-miterlimit:4;stroke-dasharray:none;stroke-dashoffset:0;stroke-opacity:1"
       d="m 320.82004,412.53323 a 136,136 0 0 1 -136,136 136,136 0 0 1 -136.000002,-136 136,136 0 0 1 136.000002,-136 136,136 0 0 1 136,136 z"
       id="circle182"
       inkscape:connector-curvature="0"
       inkscape:label="Tangier patrol" />
    <path
       style="opacity:1;fill:#000000;fill-opacity:0.18309859;stroke:#000000;stroke-width:1.02570951;stroke-linecap:round;stroke-linejoin:bevel;stroke-miterlimit:4;stroke-dasharray:none;stroke-dashoffset:0;stroke-opacity:1"
       d="M 660,150 A 210,210 0 0 1 450,360 210,210 0 0 1 240,150 210,210 0 0 1 450,-60 210,210 0 0 1 660,150 Z"
       id="circle184"
       inkscape:connector-curvature="0"
       inkscape:label="Gibraltar patrol" />
    <path
       style="opacity:1;fill:#000000;fill-opacity:0.18309859;stroke:#000000;stroke-width:0.75;stroke-linecap:round;stroke-linejoin:bevel;stroke-miterlimit:4;stroke-dasharray:none;stroke-dashoffset:0;stroke-opacity:1"
       d="m 1015,249.5 a 136,136 0 0 1 -136,136 136,136 0 0 1 -136,-136 136,136 0 0 1 136,-136 136,136 0 0 1 136,136 z"
       id="circle186"
       inkscape:connector-curvature="0"
       inkscape:label="Algiers patrol" />
    <path
       style="opacity:1;fill:#000000;fill-opacity:0.18309859;stroke:#000000;stroke-width:0.74131972;stroke-linecap:round;stroke-linejoin:bevel;stroke-miterlimit:4;stroke-dasharray:none;stroke-dashoffset:0;stroke-opacity:1"
       d="m 1411.5,222 a 136,136 0 0 1 -136,136 136,136 0 0 1 -136,-136 136,136 0 0 1 136,-136 136,136 0 0 1 136,136 z"
       id="circle188"
       inkscape:connector-curvature="0"
       inkscape:label="Tunis patrol" />
    <path
       style="opacity:1;fill:#000000;fill-opacity:0.18309859;stroke:#000000;stroke-width:0.74512708;stroke-linecap:round;stroke-linejoin:bevel;stroke-miterlimit:4;stroke-dasharray:none;stroke-dashoffset:0;stroke-opacity:1"
       d="m 1757.1212,552.43933 a 243,243 0 0 1 -243,243 243,243 0 0 1 -243,-243 243,243 0 0 1 243,-243 243,243 0 0 1 243,243 z"
       id="circle190"
       inkscape:connector-curvature="0"
       inkscape:label="Tripoli patrol" />
    <path
       inkscape:label="mask"
       inkscape:connector-curvature="0"
       id="circle164"
       d="m 152.69971,0 0.60058,20.299805 c 0.6,16.1 1.09932,21.899805 2.79932,27.799805 1.1,4.1 2.40078,11.200879 2.80078,15.900879 0.5,6.4 1.39951,9.799219 3.49951,13.69922 2.3,4.299997 2.89942,7.300095 3.89942,17.6001 1,11.299991 0.90126,12.900191 -0.69873,17.200191 -2.2,5.7 -8.00049,11.79961 -13.00049,13.59961 -2.4,0.9 -3.49961,1.79971 -3.09961,2.69971 1.6,4.2 3,22.10117 3,38.70117 v 18.99903 l 9,4.40038 c 5.9,2.90001 10.69951,4.59991 13.99951,4.89991 6.4,0.5 11.50049,3.4998 11.50049,6.7998 0,3.2 2.89893,3.2 5.89893,0 1.3,-1.3 3.8001,-2.7 5.6001,-3 1.9,-0.4 5.30068,-1.49902 7.70068,-2.49902 2.4,-1 6.49922,-2.2001 9.19922,-2.6001 4.8,-0.6 5.20048,-0.90098 11.50048,-8.00097 1.00001,-1.10001 2.60059,-3.19923 3.60059,-4.69923 1.7,-2.7 1.69981,-2.6998 3.79981,-0.7998 1.1,1.1 2.60029,1.99951 3.30029,1.99951 0.7,0 2.59971,1.10049 4.19971,2.50049 2,1.7 3.9999,2.3998 6.3999,2.29981 1.9,-0.1 3.99961,0.19951 4.59961,0.49951 2,1.3 11.4999,-1.89923 13.8999,-4.69922 1.9,-2.30001 2.20068,-3.40088 1.70069,-6.90088 -0.6,-3.5 -2.09971,-7.9 -4.19971,-12 -0.2,-0.4 0.0987,-0.70019 0.69873,-0.70019 0.6,0 2.70107,3.20009 4.60107,7.10009 4.6,9.4 5.19971,10.0999 8.69971,9.39991 1.6,-0.40001 2.79932,-0.19971 2.79932,0.30029 0,1.03054 2.63872,2.00794 6.92284,2.74951 A 92.269779,92.269779 0 0 0 281.9795,216 92.269779,92.269779 0 0 0 374.25,308.27051 92.269779,92.269779 0 0 0 466.51905,216 a 92.269779,92.269779 0 0 0 -0.0937,-1.87793 c 3.05331,2.58104 4.45222,2.81669 5.9751,1.37842 0.79999,-0.8 2.2999,-1.5 3.3999,-1.5 1.1,0 2.49922,-0.7 3.19922,-1.5 0.7,-0.8 2.10107,-1.5 3.10107,-1.5 3.5,0 6.89942,-2.20107 6.89942,-4.60107 0,-1.3 0.50049,-2.59893 1.00048,-2.89893 0.70001,-0.4 0.89951,0.19883 0.49952,1.79883 -0.6,2.1 -0.19942,2.60107 2.10058,3.10108 2.1,0.6 3.29942,0.10009 5.39942,-1.89991 1.8,-1.7 2.9999,-2.30107 3.3999,-1.60107 0.4,0.6 1.80068,1.1001 3.20068,1.1001 1.4,0 2.7,0.7 3,1.5 0.8,1.99999 3.99883,1.90039 4.79883,-0.0996 0.4,-0.99999 1.2002,-1.40048 2.20019,-1.00048 0.9,0.4 2.30001,0.10048 3,-0.49952 0.70001,-0.6 1.80088,-0.79989 2.40088,-0.3999 0.6,0.4 1.99961,-0.10009 3.09962,-1.1001 1.2,-1.09999 3.20028,-1.6996 4.80029,-1.5996 1.6,0.2 3.3001,-0.39971 4.10009,-1.19971 0.70001,-0.9 1.7002,-1.60107 2.2002,-1.60107 1.3,0 4.59932,3.90019 5.79932,6.70019 0.5,1.3 1.59941,2.29981 2.39941,2.29981 0.9,0 2.30108,1.40107 3.10107,3.10107 2.7,5.1 4.0001,3.09931 4.1001,-6.20069 0.2,-12.69999 0.19893,-12.49921 2.89893,-13.69921 1.4,-0.6 2.50049,-2 2.50049,-3 0,-1.1 0.60039,-3.2003 1.40039,-4.8003 1,-2.2 1.19912,-4.80039 0.59912,-10.40039 -0.6,-5.9 -0.49942,-7.79961 0.60059,-9.09961 0.79999,-0.9 2.30028,-4.7997 3.30029,-8.6997 1,-4.00001 2.29892,-7.80049 2.89892,-8.5005 0.6,-0.6 1.30069,-4.8999 1.70069,-9.3999 l 0.70019,-8.10058 4.69922,0.0996 c 4.3,0.2 4.7003,3.9e-4 6.3003,-3.09961 2.19999,-4.4 2.30068,-4.50029 4.70068,-3.30029 1.7,0.9 2.19922,0.80097 3.19922,-0.99903 0.6,-1.2 0.80097,-3.40098 0.50097,-5.00097 -0.39999,-2.4 -0.20107,-2.89893 1.39893,-2.89893 1,0 2.5999,-1.0002 3.3999,-2.2002 1.40001,-1.89999 1.6002,-1.90097 2.2002,-0.50097 0.9,2.5 2.49971,2.10068 5.6997,-1.29932 1.60001,-1.7 3.90059,-3 5.10059,-3 1.3,0 3.80049,-0.5001 5.50049,-1.1001 2.7,-1 3.1001,-1.50029 2.60009,-3.30029 -0.69999,-2.2 -2.70117,-13.299609 -2.70117,-15.099609 0,-0.6 0.30127,-2.500387 0.80127,-4.400392 0.6,-2.899995 0.49913,-3.299318 -0.90087,-2.799315 -2.2,0.800002 -2.99961,-0.800978 -1.59961,-3.500978 0.9,-1.699995 0.90049,-2.39883 -0.49952,-3.298827 -2,-1.5 -2.00107,-2.9 -0.10107,-4.5 2,-1.6 2.00107,-8.000976 0.10107,-8.000976 -0.8,0 -1.5999,0.601171 -1.8999,1.201171 -0.2,0.7 -0.80117,0.999122 -1.20117,0.599121 -1.3,-1.299999 1.3001,-5.700488 4.1001,-7.000488 2.3,-1.1 2.50098,-1.699609 2.00097,-4.59961 -0.3,-2.1 0.0994,-4.600293 0.89942,-6.300292 1.8,-3.400001 1.80068,-3.399122 0.20068,-5.099121 -2.2,-2.200001 -3.00078,-8.300196 -1.30078,-9.700196 1.3,-1.1 1.50078,-0.800391 1.30078,1.599609 -0.2,2.200001 0.1999,2.800391 1.8999,2.900391 1.2,0.1 2.59923,0.399805 3.19923,0.799805 1.59999,0.9 2.60077,-1.299219 2.80077,-6.199219 0.1,-4.3 -0.2001,-4.900684 -4.1001,-7.700684 -1.8,-1.299999 -1.10019,-1.4 6.79981,-1.5 h 8.69971 V 10.5 0 H 391.29932 Z M 1592.4698,97.261231 a 92.269779,92.269779 0 0 0 -92.2691,92.269049 92.269779,92.269779 0 0 0 92.2691,92.27051 92.269779,92.269779 0 0 0 92.269,-92.27051 92.269779,92.269779 0 0 0 -92.269,-92.269049 z M 1232.25,185.9795 a 92.269779,92.269779 0 0 0 -89.9531,72.24609 c -0.421,-0.74879 -0.7532,-1.22607 -0.8965,-1.22607 -2.4,0 -10.7006,3.5999 -11.1006,4.8999 -0.3,0.9 -1.2991,2.40029 -2.0991,3.30029 -1.4,1.6 -1.6005,1.60078 -4.0005,-0.19922 -3,-2.4 -4.0003,-2.4999 -6.3003,-0.3999 -1.7,1.5 -1.9003,1.39942 -3.3003,-2.10059 -1.9,-4.4 -3.3996,-4.19951 -6.0996,1.00049 -2.5,4.9 -9.6006,8.89951 -14.1006,7.99951 -2.8999,-0.5 -3.1987,-0.90058 -3.6987,-5.10058 -0.7,-6.3 -5.3006,-13.1999 -11.1006,-16.8999 -4,-2.4 -6.2,-2.99883 -12,-3.29883 -6.1,-0.3 -7.7999,-2e-4 -12.3999,2.2998 -9,4.6 -13.5001,12.49912 -13.1001,23.09912 0.1,3.5 -3e-4,6.60088 -0.3003,6.90088 -0.3,0.3 -2.1993,-1.7 -4.2993,-4.5 -2,-2.7 -4.301,-5.00097 -5.001,-5.00097 -0.8,0 -3.1002,1.99999 -5.2002,4.5 -4.0999,4.99999 -6.2988,5.70019 -6.2988,2.20019 0,-1.3 -0.5001,-2.7999 -1.1001,-3.3999 -0.8,-0.8 -0.901,-1.99971 -0.1011,-4.19971 1.1,-3.1 -0.099,-10.1001 -1.6992,-10.1001 -0.5,0 -1.6001,1.2001 -2.6001,2.6001 -1.5,2.4 -2.2003,2.60058 -6.3003,2.10059 -2.6,-0.3 -5.2999,-7.5e-4 -6.3999,0.59912 -1.3,0.9 -2.2991,0.89961 -3.59909,0.0996 -2.20005,-1.4 -19.40047,-0.59951 -22.0005,1.00048 -0.6,0.3 -2.0007,2.69942 -3.2007,5.39942 -3.69997,8.1 -4.49902,9.7002 -5.499,9.7002 -0.21277,0 -0.61125,0.1606 -1.07227,0.38086 a 92.269779,92.269779 0 0 0 -83.92823,-54.15088 92.269779,92.269779 0 0 0 -90.0249,72.56689 c -3.06877,-0.43106 -3.9483,-0.0244 -6.1758,2.20313 -1.5,1.5 -4.09972,3.40117 -5.6997,4.20117 -2.49997,1.3 -3.29947,1.29892 -6.4995,-0.10108 -4.70002,-1.99999 -8.7,-2.69932 -15,-2.79931 -3.99997,0 -5.4996,-0.50049 -7.5996,-2.50049 -1.40002,-1.4 -2.5005,-2.9999 -2.5005,-3.39991 0,-2.49999 -3.19952,-0.3997 -4.99952,3.3003 -1.2,2.4 -3.00048,5.90029 -4.00048,7.80029 -1.1,1.9 -1.99952,4.6 -1.99952,6 0,3.8 -2.70078,6.99903 -5.80077,6.99903 -4,0 -6.79932,2.4 -8.79932,7.5 l -1.70068,4.5 h -6.59913 c -6.2,0 -6.90039,-0.19893 -8.90039,-2.89893 -6.9,-9.4 -25.0997,-10.70117 -37.19971,-2.70117 -3.19999,2.1 -11.00067,12.20059 -12.20067,15.60058 -0.20001,0.6 -5.7003,2.19951 -12.3003,3.49952 -9.7,1.9 -14.79981,3.60039 -26.2998,8.90038 -7.9,3.6 -15.89971,7.60001 -17.69971,9 -4.5,3.50001 -8.50049,11.79972 -8.50049,17.69971 0,5.80001 0.1,5.69971 -22.5,16.19971 -16.4,7.5 -19.19971,8.30078 -41.69971,11.80079 -6.1,0.9 -8.09922,0.9 -9.19922,0 -1.2,-1.00001 -2.10107,-0.79952 -4.60107,1.00048 -3.1,2.4 -10.69903,3.79893 -23.49903,4.39893 -3.3,0.2 -7.99999,0.60088 -10.5,0.90088 -3.3,0.4 -5.20097,0.19912 -6.50097,-0.90088 -2.7,-2 -5.2002,-1.89903 -8.2002,0.50097 -4.8,3.70001 -26.39912,2.2002 -32.09912,-2.2998 -0.7,-0.5 -3.30068,-0.7003 -6.20068,-0.30029 -3.2,0.4 -5.59981,0.19902 -6.79981,-0.50098 -1.5,-1 -2.80038,-0.9001 -5.90039,0.3999 -2.89999,1.1 -6.29893,1.4001 -13.39892,1.1001 -5.1,-0.2 -10.60108,-0.39951 -12.10108,-0.49951 -0.67075,0 -1.39483,0.19815 -2.20459,0.58447 a 92.269779,92.269779 0 0 0 -91.13965,-78.63721 92.269779,92.269779 0 0 0 -92.27051,92.27051 92.269779,92.269779 0 0 0 19.04004,55.94531 c -3.36835,3.27426 -7.90818,8.01492 -11.22509,11.73633 -5.1,5.7 -9.49952,9.5 -13.99952,12 -3.6,2 -9.6996,6.80069 -13.59961,10.70069 -6.2,6.09999 -8.20098,7.39971 -15.50097,10.1997 -4.6,1.70001 -12.19991,3.60078 -16.8999,4.30078 -4.70001,0.6 -11.4,1.79971 -15,2.69971 -5.90001,1.4 -6.79893,1.40039 -10.39893,-0.0996 -5.30001,-2.2 -7.10088,-2.00059 -8.40088,0.89942 -1.1,2.3 -1.5999,2.4999 -4.8999,1.8999 -2.1,-0.4 -4.49942,-1.29951 -5.39942,-1.99951 -2,-1.8 -3.3999,-1.80078 -6.3999,0.19921 -1.4,0.9 -3.300394,1.30089 -4.400389,0.90088 -1.100002,-0.3 -3.499807,0.0994 -5.299807,0.89942 -1.8,0.8 -10.200585,3.80058 -18.600586,6.60058 -8.5,2.7 -16.6,5.59991 -18.000001,6.39991 -1.899999,0.9 -9.499707,1.49951 -25.199707,1.99951 -12.4,0.4 -24.2001952,1.10068 -26.2001953,1.70068 L 0,555.09961 v 122.9004 123 h 880.00051 879.99899 v -61.5 c 0,-59.1 -0.099,-61.5 -1.7988,-61.5 -2.1,0 -5.2002,-2.99951 -5.2002,-4.99952 0,-0.79999 1.099,-2.60048 2.499,-4.00048 2.4,-2.5 2.4999,-2.99932 1.8999,-10.29932 l -0.6987,-7.70068 -5.6001,-5.50049 c -3.1,-3 -6.2009,-5.49903 -6.9009,-5.49903 -1.7,0 -9.1992,5.99893 -9.1992,7.39893 0,0.50001 1.0002,2.0003 2.2002,3.3003 1.7,1.89999 1.8995,2.2998 0.4995,2.2998 -2.5,0 -4.7007,2.9 -4.7007,6 0,3.3 -3.5992,6.50049 -6.1992,5.50049 -0.8,-0.3 -2.4006,-2.59952 -3.6006,-4.99952 -1.8,-3.69999 -2.6997,-4.50058 -5.6997,-5.10058 -3.3,-0.6 -3.9995,-0.29951 -6.4995,2.50049 -1.6,1.7 -3.7011,3.09961 -4.6011,3.09961 -1.9,0 -7.3989,4.6999 -7.3989,6.3999 0,0.5 0.7,1.7001 1.5,2.6001 1.3,1.4 1.1,2.1 -1.5,6 -1.7,2.5 -3,5.50019 -3,6.70019 0,1.30001 -0.4005,2.29981 -1.0005,2.29981 -0.5,0 -1.0005,-0.59932 -1.0005,-1.29932 0,-0.7 -1.4,-3.50107 -3,-6.10107 -2.9,-4.5 -3.2988,-4.8001 -6.2988,-4.1001 -5.3,1.1 -6.9002,0.8001 -14.2002,-1.8999 -7.6,-2.9 -10.5,-5.49922 -10.5,-9.19922 0,-3.7 -2.5002,-3.90058 -6.7002,-0.60058 -3.5,2.79999 -5.2002,3.3999 -12.7002,4.8999 -2.6,0.5 -2.8002,0.30068 -2.2002,-1.29932 0.9,-2.4 2.6001,-11.1 2.6001,-13.5 0,-1 -0.6996,-2.5003 -1.5996,-3.30029 -1.3,-1.4 -1.8997,-1.40069 -4.1997,-0.20069 -1.5,0.80001 -5.7006,1.4004 -9.6006,1.4004 -5.9,0 -7.2,-0.39981 -9,-2.29981 -4,-4.2 -5.4999,-4.50039 -16.8999,-2.90039 -7.8,1.1 -11.2002,1.1999 -12.7002,0.3999 -2.3,-1.2 -2.2994,-1.39941 -2.3994,-9.89941 -0.1,-6 -0.3011,-6.50059 -3.1011,-8.10059 -2.1,-1.2 -3.2997,-2.89922 -4.1997,-6.19922 -0.8,-2.4 -2.4994,-5.60088 -3.8994,-6.90088 -2.5,-2.3 -2.6009,-2.29912 -3.9009,-0.59912 -1.2,1.6 -1.0994,2.29952 0.6006,4.99952 2.7,4.5 4.1004,10.0997 4.4004,17.6997 0.2,3.6 0.599,8.50098 0.999,11.00097 0.7,4.00001 0.5999,4.29923 -0.7002,3.19923 -1,-0.80001 -1.6987,-3.99981 -2.1987,-9.79981 -0.6,-8.6 -2.1006,-12.8999 -5.1006,-15.3999 -2.3,-1.9 -5.5005,-8.4998 -5.5005,-11.29981 0,-1.3 0.901,-3.1997 2.001,-4.19971 2.3,-2.1 2.4995,-5.00048 0.4995,-8.50048 -0.8,-1.4 -1.4,-3.70058 -1.5,-5.10059 0,-2.79999 -2.1997,-5.29883 -5.6997,-6.29883 -1.2,-0.39999 -3.1008,-2.60097 -4.3008,-5.00097 l -2.0991,-4.39893 2.6001,-3.7002 c 1.4,-2.1 2.499,-4.50048 2.499,-5.50048 0,-2.8 -3.3996,-4.99952 -7.5996,-4.99952 -2.3,0 -4.8999,-0.80097 -6.3999,-2.00097 -1.4,-1.1 -3.1002,-1.99951 -3.7002,-1.99951 -0.7,0 -1.2993,-0.5001 -1.2993,-1.1001 0,-0.38336 -0.4928,-0.35484 -1.2378,0 a 127.9192,127.9192 0 0 0 -119.6719,-83.17383 127.9192,127.9192 0 0 0 -101.9106,50.79053 c -0.6972,-0.31748 -1.3047,-0.51709 -1.6802,-0.51709 -0.9,0 -2.7997,-0.89951 -4.1997,-1.99951 -2,-1.6 -2.9005,-1.79981 -4.0005,-0.79981 -1.1,0.9 -1.9993,0.50049 -4.2993,-1.99951 -1.6,-1.8 -3.2998,-3.20068 -3.7998,-3.20068 -0.6,0 -2.6007,-2.50049 -4.7007,-5.50049 -3.8,-5.8 -4.4003,-6.19932 -6.3003,-4.29932 -1.8,1.8 -2.4001,0.39991 -1.1001,-2.60009 1,-2.20001 0.9005,-3.99942 -0.4995,-9.89942 -0.9,-4 -1.5004,-9.30117 -1.4004,-11.70117 0.3,-3.8 -2e-4,-4.49971 -2.2002,-5.69971 -1.7,-0.8 -2.7,-2.3 -3,-4.5 -0.5,-3.4 -3.5995,-5.09931 -4.9995,-2.79932 -0.4,0.70001 -2.9001,1.39961 -5.6001,1.59962 -2.7,0.1 -3.9001,0.0993 -2.6001,-0.20069 3.4,-0.8 3.6998,-2.7997 0.7998,-5.69971 -1.4,-1.5 -2.6001,-2.99912 -2.6001,-3.59912 0,-0.5 -2.4001,-0.90127 -5.2002,-0.80127 -4.9999,0.2 -5.2986,0.40001 -5.5986,3 -0.2,1.60001 0.1994,3.50078 0.8994,4.30079 0.9,1.2 0.7,1.40038 -1.5,1.40038 -1.5,0 -2.8,0.59971 -3,1.19971 -1.5,5 -1.9005,5.39941 -2.5005,2.39941 -0.5,-2.7 -1.0003,-2.99922 -4.8003,-3.19921 -3.4,-0.2 -4.799,0.29902 -6.999,2.49902 -1.5,1.4 -6.3,4.40059 -10.5,6.60059 l -7.8003,3.89941 -2.9004,-2.79931 c -1.6,-1.60001 -3.9998,-3.4005 -5.2998,-4.0005 -1.3,-0.6 -2.8991,-2.50009 -3.5991,-4.10009 -1.7,-3.8 -2.1009,-4.59922 -5.4009,-9.19922 -2.5,-3.5 -2.6999,-4.3 -1.8999,-9 0.9,-5.9 5.9001,-12.69961 10.1001,-13.59961 7.1,-1.5 13.0005,-4.80078 13.0005,-7.30078 0,-0.7 0.8995,-1.5999 1.9995,-1.8999 1.1,-0.4 2.8002,-1.90029 3.7002,-3.3003 2.3,-3.6 7.2005,-10.09932 10.0005,-13.29931 l 2.2998,-2.50049 -3,-6 c -5.3,-10.2 -5.2008,-22.9002 0.1992,-30.7002 1.9,-2.7 1.9003,-2.8999 0.3003,-6.3999 -0.1341,-0.26825 -0.2674,-0.56235 -0.3999,-0.87158 A 92.269779,92.269779 0 0 0 1324.5205,278.25 92.269779,92.269779 0 0 0 1232.25,185.9795 Z m 798.375,159 a 92.269779,92.269779 0 0 0 -92.2704,92.27051 92.269779,92.269779 0 0 0 92.2704,92.26904 92.269779,92.269779 0 0 0 92.2691,-92.26904 92.269779,92.269779 0 0 0 -92.2691,-92.27051 z m 304.9483,17.44482 a 92.269779,92.269779 0 0 0 -92.269,92.27051 92.269779,92.269779 0 0 0 92.269,92.26905 92.269779,92.269779 0 0 0 92.2705,-92.26905 92.269779,92.269779 0 0 0 -92.2705,-92.27051 z m -458.3995,128.43604 a 92.269779,92.269779 0 0 0 -92.2705,92.27051 92.269779,92.269779 0 0 0 92.2705,92.26904 92.269779,92.269779 0 0 0 92.2691,-92.26904 92.269779,92.269779 0 0 0 -92.2691,-92.27051 z"
       style="display:inline;opacity:1;fill:#808000;fill-opacity:0.18309859;stroke:#000000;stroke-width:0.76533234;stroke-linecap:round;stroke-linejoin:bevel;stroke-miterlimit:4;stroke-dasharray:none;stroke-dashoffset:0;stroke-opacity:1" />
  </g>
  <circle
     style="opacity:1;fill:#808000;fill-opacity:0.18309859;stroke:#000000;stroke-width:0.75;stroke-linecap:round;stroke-linejoin:bevel;stroke-miterlimit:4;stroke-dasharray:none;stroke-dashoffset:0;stroke-opacity:1"
     id="path33"
     cx="175.38394"
     cy="728.00201"
     r="23.864855" />
  <circle
     style="opacity:1;fill:#808000;fill-opacity:0.18309859;stroke:#000000;stroke-width:0.75;stroke-linecap:round;stroke-linejoin:bevel;stroke-miterlimit:4;stroke-dasharray:none;stroke-dashoffset:0;stroke-opacity:1"
     id="path33-3"
     cx="294.5625"
     cy="728.0625"
     r="23.864855" />
  <circle
     style="opacity:1;fill:#808000;fill-opacity:0.18309859;stroke:#000000;stroke-width:0.75;stroke-linecap:round;stroke-linejoin:bevel;stroke-miterlimit:4;stroke-dasharray:none;stroke-dashoffset:0;stroke-opacity:1"
     id="path33-3-6"
     cx="413.25"
     cy="728.0625"
     r="23.864855" />
  <circle
     style="opacity:1;fill:#808000;fill-opacity:0.18309859;stroke:#000000;stroke-width:0.75;stroke-linecap:round;stroke-linejoin:bevel;stroke-miterlimit:4;stroke-dasharray:none;stroke-dashoffset:0;stroke-opacity:1"
     id="path33-3-6-7"
     cx="532.5"
     cy="728.4375"
     r="23.864855" />
  <circle
     style="opacity:1;fill:#808000;fill-opacity:0.18309859;stroke:#000000;stroke-width:0.75;stroke-linecap:round;stroke-linejoin:bevel;stroke-miterlimit:4;stroke-dasharray:none;stroke-dashoffset:0;stroke-opacity:1"
     id="path33-3-6-7-5"
     cx="651.75"
     cy="728.0625"
     r="23.864855" />
  <circle
     style="opacity:1;fill:#808000;fill-opacity:0.18309859;stroke:#000000;stroke-width:0.75;stroke-linecap:round;stroke-linejoin:bevel;stroke-miterlimit:4;stroke-dasharray:none;stroke-dashoffset:0;stroke-opacity:1"
     id="path33-3-6-7-5-3"
     cx="770.625"
     cy="727.6875"
     r="23.864855" />
  <circle
     style="opacity:1;fill:#808000;fill-opacity:0.18309859;stroke:#000000;stroke-width:0.75;stroke-linecap:round;stroke-linejoin:bevel;stroke-miterlimit:4;stroke-dasharray:none;stroke-dashoffset:0;stroke-opacity:1"
     id="path33-3-6-7-5-3-5"
     cx="892.875"
     cy="728.0625"
     r="23.864855" />
  <circle
     style="opacity:1;fill:#808000;fill-opacity:0.18309859;stroke:#000000;stroke-width:0.75;stroke-linecap:round;stroke-linejoin:bevel;stroke-miterlimit:4;stroke-dasharray:none;stroke-dashoffset:0;stroke-opacity:1"
     id="path33-3-6-7-5-3-6"
     cx="978.1875"
     cy="728.0625"
     r="23.864855" />
  <circle
     style="opacity:1;fill:#808000;fill-opacity:0.18309859;stroke:#000000;stroke-width:0.75;stroke-linecap:round;stroke-linejoin:bevel;stroke-miterlimit:4;stroke-dasharray:none;stroke-dashoffset:0;stroke-opacity:1"
     id="path33-3-6-7-5-3-2"
     cx="1063.6875"
     cy="727.6875"
     r="23.864855" />
  <circle
     style="opacity:1;fill:#808000;fill-opacity:0.18309859;stroke:#000000;stroke-width:0.75;stroke-linecap:round;stroke-linejoin:bevel;stroke-miterlimit:4;stroke-dasharray:none;stroke-dashoffset:0;stroke-opacity:1"
     id="path33-3-6-7-5-3-9"
     cx="1149"
     cy="728.0625"
     r="23.864855" />
</svg>
